<svg xmlns="http://www.w3.org/2000/svg" xmlns:xlink="http://www.w3.org/1999/xlink" width="506" height="356" viewBox="0 0 506 356">
  <defs>
    <clipPath id="clip-path">
      <rect id="Rectangle_134" data-name="Rectangle 134" width="800" height="800"/>
    </clipPath>
    <clipPath id="clip-path-2">
      <rect id="Rectangle_4" data-name="Rectangle 4" width="1391.56" height="407.474" fill="none"/>
    </clipPath>
    <clipPath id="clip-iconHrLogo">
      <rect width="506" height="356"/>
    </clipPath>
  </defs>
  <g id="iconHrLogo" clip-path="url(#clip-iconHrLogo)">
    <rect width="506" height="356" fill="#fff"/>
    <g id="Web_1920_2" data-name="Web 1920 – 2" clip-path="url(#clip-path)">
      <rect id="Rectangle_133" data-name="Rectangle 133" width="800" height="800" fill="rgba(255,255,255,0)"/>
      <g id="Group_18" data-name="Group 18" transform="translate(-555.691 -381.672)">
        <g id="Group_5" data-name="Group 5" transform="translate(91.909 335.935)">
          <g id="Group_4" data-name="Group 4" clip-path="url(#clip-path-2)">
            <path id="Path_6" data-name="Path 6" d="M88.5,83.26a120.119,120.119,0,0,1,37.98-25.528,116.549,116.549,0,0,1,46.3-9.332,119.988,119.988,0,0,1,45.342,8.9,122.8,122.8,0,0,1,39.7,26.48,22.514,22.514,0,0,0,17.132,7.053,25.209,25.209,0,0,0,17.3-7.243,24.025,24.025,0,0,0,6.782-16.738,23.549,23.549,0,0,0-7.162-16.9A167.687,167.687,0,0,0,126.638,6.3,168.723,168.723,0,0,0,86.189,23.93a163.493,163.493,0,0,0-33.68,27.129A168.842,168.842,0,0,0,28.052,252.692a167.98,167.98,0,0,0,26.03,34.046,164.806,164.806,0,0,0,33.911,26.206,172.423,172.423,0,0,0,39.893,16.86,163.646,163.646,0,0,0,44.4,6.063A173.374,173.374,0,0,0,235.54,323.9a162.911,162.911,0,0,0,56.031-37.249,23.664,23.664,0,0,0,6.782-16.779,22.709,22.709,0,0,0-7.216-17.457,23.649,23.649,0,0,0-16.9-6.457,24.845,24.845,0,0,0-17.01,7.094,112.68,112.68,0,0,1-39.716,26.356,124.59,124.59,0,0,1-45.224,7.989,115.474,115.474,0,0,1-47.177-9.644,119.428,119.428,0,0,1-37.6-26.084,122.285,122.285,0,0,1-24.863-38.1A119.922,119.922,0,0,1,88.5,83.26" transform="translate(537.688 57.866)" fill="#00bcd4"/>
            <path id="Path_7" data-name="Path 7" d="M211.866,58.473A97.762,97.762,0,0,0,160.58,7.419,96.543,96.543,0,0,0,123.157.025,103.734,103.734,0,0,0,97.526,3.263a92.042,92.042,0,0,0-22.867,9.7A94.616,94.616,0,0,0,55.241,27.979,108.888,108.888,0,0,0,40.227,47.4a110.825,110.825,0,0,0-9.468,22.874A95.3,95.3,0,0,0,27.3,95.9a94.041,94.041,0,0,0,3.464,25.632A105.061,105.061,0,0,0,40.227,144.4a94.616,94.616,0,0,0,15.014,19.418,88.309,88.309,0,0,0,19.418,15.247,96.126,96.126,0,0,0,74.13,9.7,100.272,100.272,0,0,0,22.874-9.7,98.148,98.148,0,0,0,34.665-34.649A86.806,86.806,0,0,0,215.8,121.55a94.144,94.144,0,0,0,3.7-25.632,96.773,96.773,0,0,0-7.627-37.446M186.235,122.7a64.145,64.145,0,0,1-14.548,21.748A66.509,66.509,0,0,1,149.939,159a65.3,65.3,0,0,1-26.564,5.546A63.934,63.934,0,0,1,96.578,159a67.33,67.33,0,0,1-36.3-36.3,65.246,65.246,0,0,1-5.313-26.8,63.509,63.509,0,0,1,5.313-26.564A70.422,70.422,0,0,1,74.83,47.591a68.775,68.775,0,0,1,96.857,0,66.488,66.488,0,0,1,14.548,21.748A63.485,63.485,0,0,1,191.548,95.9a65.237,65.237,0,0,1-5.328,26.8Z" transform="translate(596.862 129.673)" fill="#00bcd4"/>
            <path id="Path_11" data-name="Path 11" d="M173.008,11.6V.179H161.522a11.524,11.524,0,0,0-8.286,3.389,11.359,11.359,0,0,0-3.4,8.2V112.04l-74-105.325a9.786,9.786,0,0,0-2.684-3.376l-1.31-1.306.085-.607H70.046A14.505,14.505,0,0,0,65.476.381a11.444,11.444,0,0,0-8.169,3.3,11.148,11.148,0,0,0-3.441,8.2v135.77a11.147,11.147,0,0,0,3.422,8.175,11.75,11.75,0,0,0,16.344.02,11.179,11.179,0,0,0,3.448-8.195V47.428L151.7,154.059l1.306,1.613a11.715,11.715,0,0,0,8.489,3.467l2.187-.189a11.4,11.4,0,0,0,6.713-3.866,11.243,11.243,0,0,0,2.7-7.437V11.749c-.052-.065-.085-.065-.085-.15" transform="translate(782.851 146.141)" fill="#00bcd4"/>
            <path id="Path_29" data-name="Path 29" d="M0,0V241.1" transform="translate(497.429 152.633)" fill="#00bcd4"/>
            <path id="Path_29_-_Outline" data-name="Path 29 - Outline" d="M43.568,158.962H-7V0H43.568Z" transform="translate(479.145 146.319)" fill="#00bcd4"/>
            <circle id="Ellipse_3" data-name="Ellipse 3" cx="25.284" cy="25.284" r="25.284" transform="translate(473.645 88.555)" fill="#00bcd4"/>
          </g>
          <g id="Group_20" data-name="Group 20" transform="translate(658.763 164.211)">
            <ellipse id="Ellipse_5" data-name="Ellipse 5" cx="61.344" cy="61.779" rx="61.344" ry="61.779" transform="translate(0 0.242)" fill="#ffd217"/>
            <path id="Path_30" data-name="Path 30" d="M1211.09,704.763s46.483,29.439,74.815,15.716,47.811-17.486,47.811-17.486-8.19-34.087-36.522-43.6-48.7-3.32-64.854,10.182S1211.09,704.763,1211.09,704.763Z" transform="translate(-1211.017 -654.796)" fill="#fff"/>
          </g>
          <g id="Group_21" data-name="Group 21" transform="translate(658.838 164.211)">
            <path id="Path_31" data-name="Path 31" d="M39.1,0C72.428,0,99.444,27.5,99.444,61.414s-27.016,61.46-60.342,61.46-4.689-3.448,0-30.664S5.776,0,39.1,0Z" transform="translate(23.474 0.398)" fill="#ffdf5d"/>
            <path id="Path_30-2" data-name="Path 30" d="M1211.09,704.763s46.483,29.439,74.815,15.716,47.811-17.486,47.811-17.486-8.19-34.087-36.522-43.6-48.7-3.32-64.854,10.182S1211.09,704.763,1211.09,704.763Z" transform="translate(-1211.092 -654.796)" fill="#fff"/>
          </g>
        </g>
      </g>
    </g>
  </g>
</svg>
