<svg xmlns="http://www.w3.org/2000/svg" xmlns:xlink="http://www.w3.org/1999/xlink" width="214" height="85" viewBox="0 0 214 85">
  <defs>
    <clipPath id="clip-logoIcon6">
      <rect width="214" height="85"/>
    </clipPath>
  </defs>
  <g id="logoIcon6" clip-path="url(#clip-logoIcon6)">
    <g id="Group_166" data-name="Group 166" transform="translate(-282.923 -77.505)">
      <g id="Group_164" data-name="Group 164" transform="translate(288.253 85.229)">
        <path id="Path_161" data-name="Path 161" d="M331.99,100.493v41.235l-13.481,13.48h-2.775c-4.46-4.46-8.921-8.821-13.282-13.282l-.2-.2V100.1l14.769-14.868L331.99,100.1Zm-15.165,53.823V114.272l-13.184-13.085v39.947ZM330.4,100.593,317.022,87.311,303.74,100.493l13.282,13.283Zm.2.595L317.32,114.272v40.044L330.6,141.134Z" transform="translate(-302.253 -85.229)" fill="#279bdf"/>
      </g>
      <g id="Group_165" data-name="Group 165" transform="translate(338.14 104.294)">
        <path id="Path_162" data-name="Path 162" d="M364.6,152.087H348.675a2.613,2.613,0,0,1,0-5.225h5.351V127.355h-5.289a2.494,2.494,0,0,1-1.851-.778,2.534,2.534,0,0,1-.762-1.835,2.624,2.624,0,0,1,.762-1.882,2.469,2.469,0,0,1,1.851-.793H356.7a2.471,2.471,0,0,1,1.851.793,2.624,2.624,0,0,1,.762,1.882v22.119h5.227a2.626,2.626,0,0,1,1.882.762,2.572,2.572,0,0,1,.016,3.7A2.533,2.533,0,0,1,364.6,152.087ZM353.964,108.5H356.7a2.6,2.6,0,0,1,2.613,2.613v2.24a2.626,2.626,0,0,1-.762,1.882,2.474,2.474,0,0,1-1.851.793h-2.8a2.486,2.486,0,0,1-1.882-.809,2.455,2.455,0,0,1-.731-1.8l.062-2.3a2.6,2.6,0,0,1,2.613-2.613Z" transform="translate(-346.062 -108.502)" fill="#279bdf"/>
        <path id="Path_163" data-name="Path 163" d="M413.706,155.158H402.538a7.517,7.517,0,0,1-5.04-1.773l-5.071-4.418A6.752,6.752,0,0,1,390,143.491v-6.813a7.042,7.042,0,0,1,2.738-5.787l4.573-3.951a7.349,7.349,0,0,1,4.729-1.8h11.729a2.614,2.614,0,1,1,0,5.227H402.538a3.046,3.046,0,0,0-2.023.84l-4.2,3.577a2.905,2.905,0,0,0-1.026,2.334v6.377a2.242,2.242,0,0,0,.809,1.742l4.6,3.92a3.324,3.324,0,0,0,2.3.777h10.7a2.537,2.537,0,0,1,1.836.763,2.606,2.606,0,0,1-1.836,4.464Z" transform="translate(-354.006 -111.51)" fill="#279bdf"/>
        <path id="Path_164" data-name="Path 164" d="M463.209,134.549v11.043q0,3.517-3.314,6.5a10.165,10.165,0,0,1-6.829,2.986h-6.129a9.991,9.991,0,0,1-6.844-3.033q-3.266-3.033-3.266-6.456V134.549a8.887,8.887,0,0,1,3.189-6.456,9.882,9.882,0,0,1,6.921-3.033h6.129a9.891,9.891,0,0,1,6.829,2.924A8.755,8.755,0,0,1,463.209,134.549Zm-21.093.217v10.578a2.78,2.78,0,0,0,1.026,2.271l1.96,1.68a2.732,2.732,0,0,0,1.835.56h6.067a3.574,3.574,0,0,0,2.427-.965l1.586-1.4a2.485,2.485,0,0,0,.964-2.084V134.829a2.729,2.729,0,0,0-.964-2.3l-1.836-1.462a3.3,3.3,0,0,0-2.177-.778h-5.413a4.039,4.039,0,0,0-2.738.84l-1.773,1.524A2.628,2.628,0,0,0,442.117,134.766Z" transform="translate(-362.475 -111.496)" fill="#279bdf"/>
        <path id="Path_165" data-name="Path 165" d="M496.247,131.189l-7.138,4.636v16.706a2.614,2.614,0,0,1-5.227,0V127.736a2.621,2.621,0,0,1,.763-1.882,2.539,2.539,0,0,1,3.686,0,2.6,2.6,0,0,1,.778,1.882v1.742l4.769-2.893a9.9,9.9,0,0,1,5.42-1.524h2.43a7.476,7.476,0,0,1,5.39,2.208,7.735,7.735,0,0,1,2.4,5.444l.715,19.817a2.4,2.4,0,0,1-.746,1.835,2.548,2.548,0,0,1-1.867.778,2.614,2.614,0,0,1-1.8-.7,2.536,2.536,0,0,1-.809-1.913l-.777-19.506a2.531,2.531,0,0,0-2.868-2.739H498.8A4.727,4.727,0,0,0,496.247,131.189Z" transform="translate(-370.984 -111.496)" fill="#279bdf"/>
      </g>
    </g>
  </g>
</svg>
