<svg xmlns="http://www.w3.org/2000/svg" xmlns:xlink="http://www.w3.org/1999/xlink" width="214" height="85" viewBox="0 0 214 85">
  <defs>
    <linearGradient id="linear-gradient" x1="0.5" x2="0.5" y2="1" gradientUnits="objectBoundingBox">
      <stop offset="0" stop-color="#279bdf"/>
      <stop offset="1" stop-color="#0f7bbb"/>
    </linearGradient>
    <clipPath id="clip-logoIcon5">
      <rect width="214" height="85"/>
    </clipPath>
  </defs>
  <g id="logoIcon5" clip-path="url(#clip-logoIcon5)">
    <g id="Group_167" data-name="Group 167" transform="translate(-302.253 -85.229)">
      <g id="Group_164" data-name="Group 164">
        <path id="Path_161" data-name="Path 161" d="M338.554,103.863V154.2L322.1,170.656h-3.388c-5.445-5.444-10.89-10.768-16.214-16.214l-.242-.242V103.379l18.029-18.15,18.272,18.15Zm-18.513,65.7V120.683L303.947,104.71v48.765Zm16.577-65.583L320.282,87.771l-16.214,16.092,16.214,16.215Zm.242.726-16.214,15.973v48.884l16.214-16.092Z" fill="url(#linear-gradient)"/>
      </g>
      <g id="Group_165" data-name="Group 165">
        <path id="Path_162" data-name="Path 162" d="M368.7,161.708H349.252a3.19,3.19,0,0,1,0-6.379h6.532V131.517h-6.456a3.045,3.045,0,0,1-2.26-.95,3.093,3.093,0,0,1-.93-2.24,3.2,3.2,0,0,1,.93-2.3,3.014,3.014,0,0,1,2.26-.968h9.722a3.017,3.017,0,0,1,2.26.968,3.2,3.2,0,0,1,.93,2.3v27h6.381a3.206,3.206,0,0,1,2.3.93,3.14,3.14,0,0,1,.019,4.519A3.093,3.093,0,0,1,368.7,161.708ZM355.708,108.5h3.342a3.177,3.177,0,0,1,3.19,3.19v2.735a3.206,3.206,0,0,1-.93,2.3,3.02,3.02,0,0,1-2.26.968h-3.418a3.034,3.034,0,0,1-2.3-.987,3,3,0,0,1-.892-2.2l.076-2.811a3.179,3.179,0,0,1,3.19-3.19Z" fill="url(#linear-gradient)"/>
        <path id="Path_163" data-name="Path 163" d="M418.94,161.785H405.307a9.177,9.177,0,0,1-6.153-2.165l-6.19-5.393A8.243,8.243,0,0,1,390,147.543v-8.317a8.6,8.6,0,0,1,3.342-7.064l5.582-4.823a8.971,8.971,0,0,1,5.773-2.2h14.318a3.191,3.191,0,1,1,0,6.381h-13.71a3.719,3.719,0,0,0-2.469,1.025l-5.127,4.367a3.547,3.547,0,0,0-1.253,2.849v7.785a2.737,2.737,0,0,0,.987,2.127l5.621,4.785a4.058,4.058,0,0,0,2.81.949H418.94a3.1,3.1,0,0,1,2.241.931,3.181,3.181,0,0,1-2.241,5.45Z" fill="url(#linear-gradient)"/>
        <path id="Path_164" data-name="Path 164" d="M469.033,136.644v13.481q0,4.293-4.045,7.938t-8.336,3.645H449.17a12.2,12.2,0,0,1-8.355-3.7q-3.987-3.7-3.987-7.881V136.644q0-4.178,3.893-7.881a12.063,12.063,0,0,1,8.449-3.7h7.482q4.291-.076,8.336,3.569T469.033,136.644Zm-25.749.265v12.913a3.393,3.393,0,0,0,1.253,2.772l2.393,2.051a3.335,3.335,0,0,0,2.24.684h7.406a4.363,4.363,0,0,0,2.963-1.178l1.936-1.709a3.034,3.034,0,0,0,1.177-2.544V136.985a3.332,3.332,0,0,0-1.177-2.81l-2.241-1.785a4.026,4.026,0,0,0-2.658-.95h-6.608a4.931,4.931,0,0,0-3.342,1.026l-2.165,1.861A3.209,3.209,0,0,0,443.284,136.909Z" fill="url(#linear-gradient)"/>
        <path id="Path_165" data-name="Path 165" d="M498.977,132.542l-8.714,5.659V158.6a3.191,3.191,0,0,1-6.381,0V128.327a3.2,3.2,0,0,1,.931-2.3,3.1,3.1,0,0,1,4.5,0,3.169,3.169,0,0,1,.95,2.3v2.126l5.822-3.532a12.079,12.079,0,0,1,6.617-1.86h2.966a9.126,9.126,0,0,1,6.58,2.7,9.442,9.442,0,0,1,2.928,6.646l.873,24.192a2.932,2.932,0,0,1-.911,2.24,3.111,3.111,0,0,1-2.279.95,3.191,3.191,0,0,1-2.2-.855,3.1,3.1,0,0,1-.987-2.335l-.949-23.812q-.114-3.342-3.5-3.343H502.1A5.77,5.77,0,0,0,498.977,132.542Z" fill="url(#linear-gradient)"/>
      </g>
    </g>
  </g>
</svg>
