<svg xmlns="http://www.w3.org/2000/svg" xmlns:xlink="http://www.w3.org/1999/xlink" width="214" height="85" viewBox="0 0 214 85">
  <defs>
    <linearGradient id="linear-gradient" x1="0.5" x2="0.5" y2="1" gradientUnits="objectBoundingBox">
      <stop offset="0" stop-color="#279bdf"/>
      <stop offset="1" stop-color="#0f7bbb"/>
    </linearGradient>
    <clipPath id="clip-logoIcon7">
      <rect width="214" height="85"/>
    </clipPath>
  </defs>
  <g id="logoIcon7" clip-path="url(#clip-logoIcon7)">
    <g id="Group_167" data-name="Group 167" transform="translate(-281.997 -77.135)">
      <g id="Group_164" data-name="Group 164" transform="translate(287.253 85.229)">
        <path id="Path_161" data-name="Path 161" d="M331.675,100.332v40.8l-13.339,13.338h-2.746c-4.413-4.412-8.827-8.728-13.142-13.142l-.2-.2V99.94l14.613-14.711,14.81,14.711ZM316.67,153.586V113.965l-13.044-12.946v39.525Zm13.436-53.156L316.866,87.289l-13.142,13.043,13.142,13.142Zm.2.588-13.142,12.946v39.621L330.3,140.543Z" transform="translate(-302.253 -85.229)" fill="url(#linear-gradient)"/>
      </g>
      <g id="Group_165" data-name="Group 165" transform="translate(337.761 104.092)">
        <path id="Path_162" data-name="Path 162" d="M364.407,151.626h-15.76a2.585,2.585,0,0,1,0-5.17h5.294v-19.3h-5.233a2.468,2.468,0,0,1-1.832-.77,2.507,2.507,0,0,1-.754-1.816,2.6,2.6,0,0,1,.754-1.863,2.443,2.443,0,0,1,1.832-.785h7.88a2.445,2.445,0,0,1,1.832.785,2.6,2.6,0,0,1,.754,1.863v21.885h5.172a2.6,2.6,0,0,1,1.862.754,2.545,2.545,0,0,1,.015,3.663A2.507,2.507,0,0,1,364.407,151.626ZM353.88,108.5h2.709a2.575,2.575,0,0,1,2.586,2.586V113.3a2.6,2.6,0,0,1-.754,1.863,2.448,2.448,0,0,1-1.832.785h-2.77a2.459,2.459,0,0,1-1.863-.8,2.429,2.429,0,0,1-.723-1.786l.062-2.278a2.576,2.576,0,0,1,2.586-2.586Z" transform="translate(-346.062 -108.502)" fill="url(#linear-gradient)"/>
        <path id="Path_163" data-name="Path 163" d="M413.455,154.841h-11.05a7.438,7.438,0,0,1-4.987-1.755l-5.017-4.371A6.681,6.681,0,0,1,390,143.3v-6.741a6.968,6.968,0,0,1,2.709-5.725l4.524-3.909a7.271,7.271,0,0,1,4.679-1.786h11.6a2.586,2.586,0,1,1,0,5.172H402.406a3.014,3.014,0,0,0-2,.831l-4.156,3.54a2.874,2.874,0,0,0-1.016,2.309v6.31a2.218,2.218,0,0,0,.8,1.724l4.556,3.878a3.289,3.289,0,0,0,2.278.769h10.589a2.511,2.511,0,0,1,1.816.755,2.578,2.578,0,0,1-1.816,4.417Z" transform="translate(-354.387 -111.654)" fill="url(#linear-gradient)"/>
        <path id="Path_164" data-name="Path 164" d="M462.931,134.449v10.927q0,3.48-3.279,6.434a10.058,10.058,0,0,1-6.756,2.954h-6.064a9.886,9.886,0,0,1-6.772-3q-3.231-3-3.232-6.388V134.449a8.793,8.793,0,0,1,3.155-6.388,9.778,9.778,0,0,1,6.848-3H452.9a9.786,9.786,0,0,1,6.756,2.893A8.662,8.662,0,0,1,462.931,134.449Zm-20.87.215V145.13a2.75,2.75,0,0,0,1.016,2.247l1.94,1.662a2.7,2.7,0,0,0,1.816.554h6a3.536,3.536,0,0,0,2.4-.955l1.569-1.385a2.459,2.459,0,0,0,.954-2.062V134.725a2.7,2.7,0,0,0-.954-2.278L454.988,131a3.264,3.264,0,0,0-2.154-.77h-5.356a4,4,0,0,0-2.709.832l-1.755,1.508A2.6,2.6,0,0,0,442.061,134.664Z" transform="translate(-363.261 -111.639)" fill="url(#linear-gradient)"/>
        <path id="Path_165" data-name="Path 165" d="M496.117,131.124l-7.063,4.587v16.53a2.586,2.586,0,0,1-5.172,0V127.708a2.593,2.593,0,0,1,.755-1.863,2.512,2.512,0,0,1,3.647,0,2.569,2.569,0,0,1,.77,1.863v1.723l4.719-2.863a9.79,9.79,0,0,1,5.363-1.508h2.4a7.4,7.4,0,0,1,5.333,2.185,7.653,7.653,0,0,1,2.373,5.387l.708,19.608a2.376,2.376,0,0,1-.738,1.816,2.521,2.521,0,0,1-1.847.77,2.586,2.586,0,0,1-1.786-.693,2.509,2.509,0,0,1-.8-1.893l-.769-19.3a2.5,2.5,0,0,0-2.838-2.71h-2.53A4.677,4.677,0,0,0,496.117,131.124Z" transform="translate(-372.177 -111.64)" fill="url(#linear-gradient)"/>
      </g>
    </g>
  </g>
</svg>
