<svg xmlns="http://www.w3.org/2000/svg" xmlns:xlink="http://www.w3.org/1999/xlink" width="323" height="75" viewBox="0 0 323 75">
  <defs>
    <clipPath id="clip-mainIconMobile2">
      <rect width="323" height="75"/>
    </clipPath>
  </defs>
  <g id="mainIconMobile2" clip-path="url(#clip-mainIconMobile2)">
    <rect width="323" height="75" fill="#fff"/>
    <g id="Group_5" data-name="Group 5" transform="translate(10 1)">
      <path id="Path_6219" data-name="Path 6219" d="M2160.594-190.062a5.255,5.255,0,0,0-3.673,1.447,5.014,5.014,0,0,0-1.568,3.732v61.4a5.012,5.012,0,0,0,1.544,3.691,5.161,5.161,0,0,0,3.693,1.5,5.152,5.152,0,0,0,3.685-1.489,5.039,5.039,0,0,0,1.555-3.7v-61.388a5.028,5.028,0,0,0-1.573-3.741,5.245,5.245,0,0,0-3.662-1.453Z" transform="translate(-2155.352 190.816)" fill="#555da5"/>
      <path id="Union_2" data-name="Union 2" d="M4.845,10.471A5.036,5.036,0,0,1,1.489,8.923,5.151,5.151,0,0,1,0,5.238,5.16,5.16,0,0,1,1.5,1.545,5.011,5.011,0,0,1,4.873.006.774.774,0,0,1,5,0h.01Q5.1,0,5.188,0h19.95q.092,0,.184,0h3.7c.545-.016,1.07.546,1.448,1.554a10.515,10.515,0,0,1,.583,3.685,10.517,10.517,0,0,1-.586,3.693c-.377,1-.9,1.564-1.444,1.545H4.959A.774.774,0,0,1,4.845,10.471Z" transform="translate(217.51 31.655)" fill="#555da5"/>
      <path id="Path_6220" data-name="Path 6220" d="M2184.357-172.331a26.132,26.132,0,0,1,8.254-5.548,25.33,25.33,0,0,1,10.062-2.028,26.077,26.077,0,0,1,9.856,1.934,26.738,26.738,0,0,1,8.628,5.754,4.887,4.887,0,0,0,3.722,1.533h0a5.479,5.479,0,0,0,3.759-1.574,5.218,5.218,0,0,0,1.473-3.637,5.125,5.125,0,0,0-1.557-3.673,36.9,36.9,0,0,0-12.086-8.124,36.186,36.186,0,0,0-13.759-2.73,36.26,36.26,0,0,0-10.064,1.368,36.642,36.642,0,0,0-8.79,3.832,35.58,35.58,0,0,0-7.319,5.9,37.317,37.317,0,0,0-5.516,7.45,37.379,37.379,0,0,0-3.5,8.614,36.111,36.111,0,0,0-1.231,9.357,36.11,36.11,0,0,0,1.29,9.693,37.1,37.1,0,0,0,3.635,8.708,36.648,36.648,0,0,0,5.659,7.4,35.85,35.85,0,0,0,7.371,5.7,37.481,37.481,0,0,0,8.67,3.664,35.568,35.568,0,0,0,9.648,1.318,37.653,37.653,0,0,0,13.752-2.6,35.406,35.406,0,0,0,12.175-8.093,5.143,5.143,0,0,0,1.474-3.647,4.95,4.95,0,0,0-1.569-3.794,5.146,5.146,0,0,0-3.674-1.4h0a5.4,5.4,0,0,0-3.7,1.542,24.51,24.51,0,0,1-8.632,5.728,27.121,27.121,0,0,1-9.828,1.736h0a25.089,25.089,0,0,1-10.252-2.1,25.967,25.967,0,0,1-8.173-5.669,26.53,26.53,0,0,1-5.4-8.281,25.661,25.661,0,0,1-1.956-9.9,25.644,25.644,0,0,1,2.026-10.147,26.187,26.187,0,0,1,5.547-8.275Z" transform="translate(-2150.437 190.426)" fill="#555da5"/>
      <path id="Path_6221" data-name="Path 6221" d="M2280.871-168.193a37.71,37.71,0,0,0-7.893-11.573,37.923,37.923,0,0,0-11.573-7.8,36.628,36.628,0,0,0-14.2-2.806,39.5,39.5,0,0,0-9.729,1.229,34.942,34.942,0,0,0-8.678,3.682,35.932,35.932,0,0,0-7.37,5.7,41.418,41.418,0,0,0-5.7,7.37,42.03,42.03,0,0,0-3.593,8.682,36.2,36.2,0,0,0-1.315,9.728,35.726,35.726,0,0,0,1.315,9.728,40.207,40.207,0,0,0,3.593,8.679,35.933,35.933,0,0,0,5.7,7.37,33.528,33.528,0,0,0,7.37,5.787,36.421,36.421,0,0,0,8.678,3.682,36.193,36.193,0,0,0,9.729,1.315,36.148,36.148,0,0,0,9.728-1.315,38.039,38.039,0,0,0,8.682-3.682,36.028,36.028,0,0,0,7.37-5.7,36.232,36.232,0,0,0,5.786-7.452,32.936,32.936,0,0,0,3.594-8.679,35.75,35.75,0,0,0,1.4-9.728,36.754,36.754,0,0,0-2.894-14.212Zm-9.729,24.376a24.335,24.335,0,0,1-5.522,8.254,25.226,25.226,0,0,1-8.253,5.524,24.766,24.766,0,0,1-10.082,2.1,24.271,24.271,0,0,1-10.17-2.1,24.325,24.325,0,0,1-8.255-5.524,24.339,24.339,0,0,1-5.524-8.254,24.8,24.8,0,0,1-2.018-10.171,24.108,24.108,0,0,1,2.018-10.082,26.675,26.675,0,0,1,5.525-8.254,25.69,25.69,0,0,1,8.254-5.524,25.664,25.664,0,0,1,10.17-2.017,25.867,25.867,0,0,1,10.082,2.016,25.7,25.7,0,0,1,8.254,5.525,25.213,25.213,0,0,1,5.521,8.254,24.081,24.081,0,0,1,2.017,10.082,24.755,24.755,0,0,1-2.016,10.17Z" transform="translate(-2130.377 190.376)" fill="#555da5"/>
      <path id="Path_6223" data-name="Path 6223" d="M2363.919-148.594a27.78,27.78,0,0,0,4.386-1.928,23.264,23.264,0,0,0,5.525-4.56,23.08,23.08,0,0,0,3.593-6.226,20.8,20.8,0,0,0,1.315-7.452,20.9,20.9,0,0,0-1.665-8.42,21.4,21.4,0,0,0-4.736-6.751,20.063,20.063,0,0,0-7.014-4.472,21.319,21.319,0,0,0-8.5-1.665H2338.93a5.319,5.319,0,0,0-3.685,1.492,5.248,5.248,0,0,0-1.577,3.682v61.467a5.257,5.257,0,0,0,1.577,3.682,5.171,5.171,0,0,0,3.685,1.489,5.164,5.164,0,0,0,3.681-1.489,4.9,4.9,0,0,0,1.58-3.682v-24.114h8.254l16.4,26.655a5.012,5.012,0,0,0,2.98,2.358,4.855,4.855,0,0,0,1.491.262,5.216,5.216,0,0,0,2.36-.525,4.973,4.973,0,0,0,2.718-3.069,5.047,5.047,0,0,0-.44-4.3Zm-7.1-9.469h-12.626v-21.658h12.537a13.267,13.267,0,0,1,4.646.884,11.29,11.29,0,0,1,3.685,2.279,11.91,11.91,0,0,1,2.358,3.42,9.928,9.928,0,0,1,.885,4.3,9.319,9.319,0,0,1-.885,4.033,10.785,10.785,0,0,1-2.358,3.508,11.589,11.589,0,0,1-3.685,2.358,10.873,10.873,0,0,1-4.56.867Z" transform="translate(-2075.039 190.823)" fill="#555da5"/>
      <path id="Path_6225" data-name="Path 6225" d="M2318.613-184.906v-5.156h-5.186a5.2,5.2,0,0,0-3.742,1.53,5.133,5.133,0,0,0-1.536,3.7v45.271l-33.409-47.55a4.44,4.44,0,0,0-1.211-1.524l-.589-.59.038-.274h-.849a6.515,6.515,0,0,0-2.063-.472,5.165,5.165,0,0,0-3.688,1.491,5.039,5.039,0,0,0-1.554,3.7v61.293a5.025,5.025,0,0,0,1.544,3.691,5.17,5.17,0,0,0,3.7,1.5,5.149,5.149,0,0,0,3.682-1.489,5.028,5.028,0,0,0,1.557-3.7v-45.245l33.689,48.14.59.728a5.284,5.284,0,0,0,3.832,1.565l.988-.086a5.138,5.138,0,0,0,3.03-1.745,5.06,5.06,0,0,0,1.218-3.358v-61.352C2318.613-184.868,2318.613-184.868,2318.613-184.906Z" transform="translate(-2106.518 190.816)" fill="#555da5"/>
      <path id="Union_1" data-name="Union 1" d="M0,65.935c0-.007,0-.014,0-.02H0V4.456S0-.88,10.932.126c-.269,12.241,0,49.4,0,65.788h0c0,.007,0,.013,0,.02a5.659,5.659,0,0,1-5.466,5.834A5.659,5.659,0,0,1,0,65.935Z" transform="translate(251.013 72.523) rotate(180)" fill="#555da5"/>
      <path id="Path_6219-2" data-name="Path 6219" d="M2160.594-190.062a5.255,5.255,0,0,0-3.673,1.447,5.014,5.014,0,0,0-1.568,3.732v61.4a5.012,5.012,0,0,0,1.544,3.691,5.161,5.161,0,0,0,3.693,1.5,5.152,5.152,0,0,0,3.685-1.489,5.039,5.039,0,0,0,1.555-3.7v-61.388a5.028,5.028,0,0,0-1.573-3.741,5.245,5.245,0,0,0-3.662-1.453Z" transform="translate(-2155.352 190.816)" fill="#555da5"/>
      <path id="Path_6220-2" data-name="Path 6220" d="M2184.357-172.331a26.132,26.132,0,0,1,8.254-5.548,25.33,25.33,0,0,1,10.062-2.028,26.077,26.077,0,0,1,9.856,1.934,26.738,26.738,0,0,1,8.628,5.754,4.887,4.887,0,0,0,3.722,1.533h0a5.479,5.479,0,0,0,3.759-1.574,5.218,5.218,0,0,0,1.473-3.637,5.125,5.125,0,0,0-1.557-3.673,36.9,36.9,0,0,0-12.086-8.124,36.186,36.186,0,0,0-13.759-2.73,36.26,36.26,0,0,0-10.064,1.368,36.642,36.642,0,0,0-8.79,3.832,35.58,35.58,0,0,0-7.319,5.9,37.317,37.317,0,0,0-5.516,7.45,37.379,37.379,0,0,0-3.5,8.614,36.111,36.111,0,0,0-1.231,9.357,36.11,36.11,0,0,0,1.29,9.693,37.1,37.1,0,0,0,3.635,8.708,36.648,36.648,0,0,0,5.659,7.4,35.85,35.85,0,0,0,7.371,5.7,37.481,37.481,0,0,0,8.67,3.664,35.568,35.568,0,0,0,9.648,1.318,37.653,37.653,0,0,0,13.752-2.6,35.406,35.406,0,0,0,12.175-8.093,5.143,5.143,0,0,0,1.474-3.647,4.95,4.95,0,0,0-1.569-3.794,5.146,5.146,0,0,0-3.674-1.4h0a5.4,5.4,0,0,0-3.7,1.542,24.51,24.51,0,0,1-8.632,5.728,27.121,27.121,0,0,1-9.828,1.736h0a25.089,25.089,0,0,1-10.252-2.1,25.967,25.967,0,0,1-8.173-5.669,26.53,26.53,0,0,1-5.4-8.281,25.661,25.661,0,0,1-1.956-9.9,25.644,25.644,0,0,1,2.026-10.147,26.187,26.187,0,0,1,5.547-8.275Z" transform="translate(-2150.437 190.426)" fill="#555da5"/>
      <path id="Path_6221-2" data-name="Path 6221" d="M2280.871-168.193a37.71,37.71,0,0,0-7.893-11.573,37.923,37.923,0,0,0-11.573-7.8,36.628,36.628,0,0,0-14.2-2.806,39.5,39.5,0,0,0-9.729,1.229,34.942,34.942,0,0,0-8.678,3.682,35.932,35.932,0,0,0-7.37,5.7,41.418,41.418,0,0,0-5.7,7.37,42.03,42.03,0,0,0-3.593,8.682,36.2,36.2,0,0,0-1.315,9.728,35.726,35.726,0,0,0,1.315,9.728,40.207,40.207,0,0,0,3.593,8.679,35.933,35.933,0,0,0,5.7,7.37,33.528,33.528,0,0,0,7.37,5.787,36.421,36.421,0,0,0,8.678,3.682,36.193,36.193,0,0,0,9.729,1.315,36.148,36.148,0,0,0,9.728-1.315,38.039,38.039,0,0,0,8.682-3.682,36.028,36.028,0,0,0,7.37-5.7,36.232,36.232,0,0,0,5.786-7.452,32.936,32.936,0,0,0,3.594-8.679,35.75,35.75,0,0,0,1.4-9.728,36.754,36.754,0,0,0-2.894-14.212Zm-9.729,24.376a24.335,24.335,0,0,1-5.522,8.254,25.226,25.226,0,0,1-8.253,5.524,24.766,24.766,0,0,1-10.082,2.1,24.271,24.271,0,0,1-10.17-2.1,24.325,24.325,0,0,1-8.255-5.524,24.339,24.339,0,0,1-5.524-8.254,24.8,24.8,0,0,1-2.018-10.171,24.108,24.108,0,0,1,2.018-10.082,26.675,26.675,0,0,1,5.525-8.254,25.69,25.69,0,0,1,8.254-5.524,25.664,25.664,0,0,1,10.17-2.017,25.867,25.867,0,0,1,10.082,2.016,25.7,25.7,0,0,1,8.254,5.525,25.213,25.213,0,0,1,5.521,8.254,24.081,24.081,0,0,1,2.017,10.082,24.755,24.755,0,0,1-2.016,10.17Z" transform="translate(-2130.377 190.376)" fill="#555da5"/>
      <path id="Path_6223-2" data-name="Path 6223" d="M2363.919-148.594a27.78,27.78,0,0,0,4.386-1.928,23.264,23.264,0,0,0,5.525-4.56,23.08,23.08,0,0,0,3.593-6.226,20.8,20.8,0,0,0,1.315-7.452,20.9,20.9,0,0,0-1.665-8.42,21.4,21.4,0,0,0-4.736-6.751,20.063,20.063,0,0,0-7.014-4.472,21.319,21.319,0,0,0-8.5-1.665H2338.93a5.319,5.319,0,0,0-3.685,1.492,5.248,5.248,0,0,0-1.577,3.682v61.467a5.257,5.257,0,0,0,1.577,3.682,5.171,5.171,0,0,0,3.685,1.489,5.164,5.164,0,0,0,3.681-1.489,4.9,4.9,0,0,0,1.58-3.682v-24.114h8.254l16.4,26.655a5.012,5.012,0,0,0,2.98,2.358,4.855,4.855,0,0,0,1.491.262,5.216,5.216,0,0,0,2.36-.525,4.973,4.973,0,0,0,2.718-3.069,5.047,5.047,0,0,0-.44-4.3Zm-7.1-9.469h-12.626v-21.658h12.537a13.267,13.267,0,0,1,4.646.884,11.29,11.29,0,0,1,3.685,2.279,11.91,11.91,0,0,1,2.358,3.42,9.928,9.928,0,0,1,.885,4.3,9.319,9.319,0,0,1-.885,4.033,10.785,10.785,0,0,1-2.358,3.508,11.589,11.589,0,0,1-3.685,2.358,10.873,10.873,0,0,1-4.56.867Z" transform="translate(-2075.039 190.823)" fill="#555da5"/>
      <path id="Path_6225-2" data-name="Path 6225" d="M2318.613-184.906v-5.156h-5.186a5.2,5.2,0,0,0-3.742,1.53,5.133,5.133,0,0,0-1.536,3.7v45.271l-33.409-47.55a4.44,4.44,0,0,0-1.211-1.524l-.589-.59.038-.274h-.849a6.515,6.515,0,0,0-2.063-.472,5.165,5.165,0,0,0-3.688,1.491,5.039,5.039,0,0,0-1.554,3.7v61.293a5.025,5.025,0,0,0,1.544,3.691,5.17,5.17,0,0,0,3.7,1.5,5.149,5.149,0,0,0,3.682-1.489,5.028,5.028,0,0,0,1.557-3.7v-45.245l33.689,48.14.59.728a5.284,5.284,0,0,0,3.832,1.565l.988-.086a5.138,5.138,0,0,0,3.03-1.745,5.06,5.06,0,0,0,1.218-3.358v-61.352C2318.613-184.868,2318.613-184.868,2318.613-184.906Z" transform="translate(-2106.518 190.816)" fill="#555da5"/>
      <path id="Union_2-2" data-name="Union 2" d="M4.845,10.471A5.036,5.036,0,0,1,1.489,8.923,5.151,5.151,0,0,1,0,5.238,5.16,5.16,0,0,1,1.5,1.545,5.011,5.011,0,0,1,4.873.006.774.774,0,0,1,5,0h.01Q5.1,0,5.188,0h19.95q.092,0,.184,0h3.7c.545-.016,1.07.546,1.448,1.554a10.515,10.515,0,0,1,.583,3.685,10.517,10.517,0,0,1-.586,3.693c-.377,1-.9,1.564-1.444,1.545H4.959A.774.774,0,0,1,4.845,10.471Z" transform="translate(217.51 31.655)" fill="#555da5"/>
      <path id="Union_1-2" data-name="Union 1" d="M0,65.935c0-.007,0-.014,0-.02H0V4.456S0-.88,10.932.126c-.269,12.241,0,49.4,0,65.788h0c0,.007,0,.013,0,.02a5.659,5.659,0,0,1-5.466,5.834A5.659,5.659,0,0,1,0,65.935Z" transform="translate(251.013 72.523) rotate(180)" fill="#555da5"/>
    </g>
  </g>
</svg>
