<svg xmlns="http://www.w3.org/2000/svg" xmlns:xlink="http://www.w3.org/1999/xlink" width="323" height="320" viewBox="0 0 323 320">
  <defs>
    <clipPath id="clip-mainIconMobile1">
      <rect width="323" height="320"/>
    </clipPath>
  </defs>
  <g id="mainIconMobile1" clip-path="url(#clip-mainIconMobile1)">
    <rect width="323" height="320" fill="#fff"/>
    <g id="Group_12" data-name="Group 12" transform="translate(10 8)">
      <rect id="Rectangle_5329" data-name="Rectangle 5329" width="303.702" height="303.702" rx="30" transform="translate(0 0)" fill="#73a0fa" stroke="#555da5" stroke-miterlimit="10" stroke-width="6"/>
      <g id="Group_11" data-name="Group 11" transform="translate(33.313 33.314)">
        <path id="Path_6208" data-name="Path 6208" d="M2413.852-334.923l-43.562,42.609a8.942,8.942,0,0,0-2.553,7.884l10.4,60.051a14.129,14.129,0,0,1-3.119,11.649,14.409,14.409,0,0,1-11.043,5.177,14.173,14.173,0,0,1-6.666-1.674l-54.035-28.317a8.812,8.812,0,0,0-4.154-1.028,8.779,8.779,0,0,0-4.113,1.028l-54.6,28.52a14.618,14.618,0,0,1-6.663,1.634,14.436,14.436,0,0,1-11.042-5.216,14.161,14.161,0,0,1-3.084-11.729l10.773-59.936a8.889,8.889,0,0,0-2.547-7.948L2184.2-334.6a14.319,14.319,0,0,1-3.657-14.734,14.271,14.271,0,0,1,11.575-9.786l60.319-8.873a8.943,8.943,0,0,0,6.7-4.839l11.668-23.677a39.393,39.393,0,0,0,4.059-17.388v-10.318h-2.355a11.428,11.428,0,0,1-8.256-3.347,11.428,11.428,0,0,1-3.344-8.258,10.935,10.935,0,0,1,3.179-7.054,10.929,10.929,0,0,1,7.729-3.2H2325.5a11.425,11.425,0,0,1,8.256,3.347,11.422,11.422,0,0,1,3.342,8.258,10.928,10.928,0,0,1-3.177,7.05,10.825,10.825,0,0,1-7.7,3.2h-3.045v10.432a39.33,39.33,0,0,0,4.087,17.474l11.561,23.347a8.908,8.908,0,0,0,6.7,4.874l60.322,8.684a14.286,14.286,0,0,1,11.614,9.747,14.228,14.228,0,0,1-3.615,14.74Zm-59.315,33.036,41.851-40.9-57.92-8.3a18.087,18.087,0,0,1-13.557-9.826l-16.583-33.473a39.41,39.41,0,0,1-4.091-17.481v-9.777a2.592,2.592,0,0,0-2.592-2.593h-5.32a2.593,2.593,0,0,0-2.594,2.593v9.821a39.348,39.348,0,0,1-4.053,17.387l-16.548,33.582a18.129,18.129,0,0,1-13.516,9.861l-57.915,8.49,43.294,42.077a14.333,14.333,0,0,1,4.148,12.832l-10.7,59.44,52.4-27.323a18.131,18.131,0,0,1,8.342-2.057,18.12,18.12,0,0,1,8.339,2.057l51.865,27.189-10.017-57.627A18.016,18.016,0,0,1,2354.536-301.887Z" transform="translate(-2179.834 446.074)" fill="#fff" stroke="#555da5" stroke-width="5"/>
        <g id="Group_10" data-name="Group 10" transform="translate(46.868 47.213)">
          <path id="Path_6207" data-name="Path 6207" d="M2341.677-330.766a28.273,28.273,0,0,0-6.546,23.418l7.231,41.7L2304.856-285.3a28.921,28.921,0,0,0-13.174-3.239,27.894,27.894,0,0,0-9.832,1.789,25.843,25.843,0,0,0-3.309,1.445l-37.932,19.8,7.8-43.483a24.483,24.483,0,0,0-7.082-21.933l-21.614-14.909v-.91s42.539,19.313,71.964,2.7c30.248,14.424,65.713-3.791,68.5-5.013l-16.945,16.6a11.6,11.6,0,0,0-1.45,1.6Z" transform="translate(-2218.824 421.178)" fill="#ffd217"/>
          <g id="Group_9" data-name="Group 9" transform="translate(0 -3)">
            <path id="Path_2" data-name="Path 2" d="M1295.03,793.215s102.715,34.7,116.315-77.372c7.846,16.222,3.51,107.778-94.594,155.263-7.324,9.34,38.306-50.21,40.922-61.025C1315.824,819.912,1295.03,793.215,1295.03,793.215Z" transform="translate(-1295.03 -715.843)" fill="#ffe05d"/>
            <circle id="Ellipse_2" data-name="Ellipse 2" cx="12.296" cy="12.296" r="12.296" transform="translate(55.628 44.412)" fill="#ffe05d"/>
          </g>
        </g>
      </g>
    </g>
  </g>
</svg>
