<svg xmlns="http://www.w3.org/2000/svg" xmlns:xlink="http://www.w3.org/1999/xlink" width="24" height="24" viewBox="0 0 24 24">
  <defs>
    <clipPath id="clip-settings">
      <rect width="24" height="24"/>
    </clipPath>
  </defs>
  <g id="settings" clip-path="url(#clip-settings)">
    <path id="Path_206" data-name="Path 206" d="M16.431,8.315h-.914a5.941,5.941,0,0,0-.656-1.642L15.534,6a1.449,1.449,0,1,0-2.049-2.05l-.647.647a5.946,5.946,0,0,0-1.624-.7V2.949a1.449,1.449,0,0,0-2.9,0v.913a5.956,5.956,0,0,0-1.642.656L6,3.846A1.449,1.449,0,0,0,3.951,5.9l.647.647a5.935,5.935,0,0,0-.7,1.624H2.949a1.449,1.449,0,0,0,0,2.9h.913a5.941,5.941,0,0,0,.656,1.642l-.672.672A1.449,1.449,0,0,0,5.9,15.429l.647-.647a5.925,5.925,0,0,0,1.624.7v.952a1.449,1.449,0,0,0,2.9,0v-.913a5.969,5.969,0,0,0,1.642-.656l.672.672a1.449,1.449,0,1,0,2.05-2.05l-.647-.647a5.951,5.951,0,0,0,.7-1.624h.952a1.449,1.449,0,0,0,0-2.9Z" transform="translate(2 2)" fill="none" stroke="#555d61" stroke-linecap="round" stroke-linejoin="round" stroke-width="2"/>
  </g>
</svg>
