<svg xmlns="http://www.w3.org/2000/svg" xmlns:xlink="http://www.w3.org/1999/xlink" width="20" height="20" viewBox="0 0 20 20">
  <defs>
    <clipPath id="clip-accountingIcon">
      <rect width="20" height="20"/>
    </clipPath>
  </defs>
  <g id="accountingIcon" clip-path="url(#clip-accountingIcon)">
    <g id="Component_2_14" data-name="Component 2 – 14" transform="translate(1.284 0.609)">
      <g id="Group_7" data-name="Group 7" transform="translate(-753.984 -1112.982)">
        <path id="Path_25" data-name="Path 25" d="M753.984,1122.372q0-3.77,0-7.539a1.693,1.693,0,0,1,1.852-1.85q4.523,0,9.047,0a1.688,1.688,0,0,1,1.841,1.828q0,7.556,0,15.112a1.689,1.689,0,0,1-1.835,1.834q-4.523,0-9.047,0a1.692,1.692,0,0,1-1.858-1.845Q753.983,1126.141,753.984,1122.372Zm.672-3.345v.359q0,5.246,0,10.491c0,.832.374,1.206,1.205,1.206h8.983c.833,0,1.207-.374,1.207-1.2q0-5.246,0-10.491v-.361Zm11.381-.693c.006-.11.014-.2.014-.284,0-1.095,0-2.19,0-3.285a1.016,1.016,0,0,0-1.132-1.111q-4.558,0-9.117,0a1.021,1.021,0,0,0-1.146,1.13q0,1.626,0,3.251c0,.1.013.192.021.3Z" fill="#706f90"/>
        <path id="Path_26" data-name="Path 26" d="M961.569,1115c.239,0,.428,0,.616,0a.342.342,0,0,1,.386.366c0,1.539,0,3.078,0,4.64h-.665v-4.313l-.32-.016c-.008.111-.019.2-.019.284q0,4,0,8.007,0,2.412,0,4.824a.746.746,0,0,1-.006.266c-.352.854-.7,1.712-1.081,2.553a.3.3,0,0,1-.542-.04c-.363-.8-.7-1.616-1.04-2.43a.919.919,0,0,1-.015-.332q0-7.1,0-14.2c0-.248-.02-.483.267-.629.071-.036.064-.258.066-.4.008-.533.064-.593.6-.594h1.005a.365.365,0,0,1,.411.413c0,.275-.08.576.26.747.057.029.066.181.072.277C961.577,1114.6,961.569,1114.78,961.569,1115Zm-.7,8.705v-9.018h-1.286v9.018Zm.01.7h-1.295v4.311h1.295Zm-.158,5.027h-.979l.484,1.127Zm-.178-15.755h-.656l.03.294h.626Z" transform="translate(-191.157 -0.007)" fill="#706f90"/>
        <path id="Path_27" data-name="Path 27" d="M878.963,1300.3c0-.625,0-1.251,0-1.877,0-.306.13-.455.441-.452.6.005,1.206,0,1.81,0,.29,0,.435.13.434.424q0,1.927,0,3.854c0,.3-.153.42-.44.419q-.9-.006-1.81,0c-.314,0-.438-.155-.435-.458C878.967,1301.572,878.963,1300.935,878.963,1300.3Zm1.985,1.686v-3.32h-1.286v3.32Z" transform="translate(-116.598 -172.585)" fill="#706f90"/>
        <path id="Path_28" data-name="Path 28" d="M830.326,1340c-.313,0-.625,0-.938,0a.353.353,0,0,1-.4-.391c0-.4,0-.8,0-1.206a.362.362,0,0,1,.408-.415q.938,0,1.876,0a.352.352,0,0,1,.4.39c0,.4,0,.8,0,1.206a.363.363,0,0,1-.408.415Zm-.648-.694h1.306v-.624h-1.306Z" transform="translate(-69.976 -209.924)" fill="#706f90"/>
        <path id="Path_29" data-name="Path 29" d="M780.3,1219.994c-.3,0-.6,0-.9,0a.362.362,0,0,1-.415-.407c0-.391,0-.782,0-1.173,0-.29.131-.434.425-.433.614,0,1.229,0,1.843,0a.363.363,0,0,1,.416.407c0,.391,0,.782,0,1.173,0,.29-.131.436-.425.433C780.925,1219.992,780.612,1219.994,780.3,1219.994Zm-.637-.7h1.31v-.621h-1.31Z" transform="translate(-23.319 -97.96)" fill="#706f90"/>
        <path id="Path_30" data-name="Path 30" d="M830.337,1220H829.4a.363.363,0,0,1-.408-.415c0-.4,0-.8,0-1.206a.352.352,0,0,1,.4-.391q.938,0,1.876,0a.363.363,0,0,1,.409.414c0,.4,0,.8,0,1.206a.353.353,0,0,1-.4.391C830.962,1220.005,830.649,1220,830.337,1220Zm-.654-1.326v.628h1.3v-.628Z" transform="translate(-69.977 -97.97)" fill="#706f90"/>
        <path id="Path_31" data-name="Path 31" d="M880.311,1219.993c-.313,0-.625,0-.938,0a.353.353,0,0,1-.393-.395c0-.413,0-.827,0-1.24a.341.341,0,0,1,.377-.375c.648,0,1.3,0,1.943,0a.331.331,0,0,1,.357.359c.007.424.006.849,0,1.273a.343.343,0,0,1-.377.375C880.959,1220,880.635,1219.992,880.311,1219.993Zm.669-1.315h-1.31v.62h1.31Z" transform="translate(-116.614 -97.959)" fill="#706f90"/>
        <path id="Path_32" data-name="Path 32" d="M780.313,1260c-.3,0-.6,0-.9,0s-.448-.144-.442-.451c.006-.38,0-.759,0-1.139,0-.271.12-.422.4-.423.625,0,1.251,0,1.876,0a.353.353,0,0,1,.406.382c0,.413,0,.826,0,1.24a.353.353,0,0,1-.4.39C780.939,1260,780.626,1260,780.313,1260Zm.648-1.311h-1.3v.622h1.3Z" transform="translate(-23.307 -135.286)" fill="#706f90"/>
        <path id="Path_33" data-name="Path 33" d="M830.327,1259.987c-.3,0-.6,0-.9,0s-.439-.125-.437-.421q0-.586,0-1.173c0-.3.148-.423.437-.421q.9.006,1.809,0c.288,0,.439.125.437.421q0,.586,0,1.173c0,.3-.149.425-.437.421S830.628,1259.987,830.327,1259.987Zm.655-1.321h-1.3v.629h1.3Z" transform="translate(-69.972 -135.271)" fill="#706f90"/>
        <path id="Path_34" data-name="Path 34" d="M880.294,1259.987c-.29,0-.581,0-.871,0s-.439-.124-.438-.42q0-.586,0-1.173c0-.3.147-.424.436-.422q.9.006,1.809,0c.288,0,.44.124.438.42q0,.586,0,1.173c0,.3-.148.426-.436.422C880.92,1259.984,880.607,1259.987,880.294,1259.987Zm-.622-.693h1.3v-.627h-1.3Z" transform="translate(-116.62 -135.271)" fill="#706f90"/>
        <path id="Path_35" data-name="Path 35" d="M780.346,1297.99h.9a.363.363,0,0,1,.412.412c0,.4,0,.8,0,1.206a.352.352,0,0,1-.394.394c-.637,0-1.273,0-1.91,0a.341.341,0,0,1-.376-.376c0-.413,0-.826,0-1.24a.352.352,0,0,1,.394-.394C779.7,1297.988,780.022,1297.99,780.346,1297.99Zm.628.694H779.68v.625h1.294Z" transform="translate(-23.319 -172.604)" fill="#706f90"/>
        <path id="Path_36" data-name="Path 36" d="M830.337,1297.99c.313,0,.625,0,.938,0a.353.353,0,0,1,.4.391c0,.4,0,.8,0,1.206a.363.363,0,0,1-.409.414q-.938,0-1.876,0a.352.352,0,0,1-.4-.391c0-.4,0-.8,0-1.206a.362.362,0,0,1,.408-.414Zm-.657,1.317h1.3v-.623h-1.3Z" transform="translate(-69.977 -172.604)" fill="#706f90"/>
        <path id="Path_37" data-name="Path 37" d="M780.292,1339.987c-.29,0-.581,0-.871,0s-.437-.127-.436-.422q0-.587,0-1.173c0-.3.15-.421.438-.42q.9.006,1.809,0c.289,0,.438.127.436.422q0,.587,0,1.173c0,.3-.151.424-.438.42C780.917,1339.984,780.6,1339.987,780.292,1339.987Zm-.62-.693h1.3v-.627h-1.3Z" transform="translate(-23.325 -209.908)" fill="#706f90"/>
        <path id="Path_38" data-name="Path 38" d="M783.673,1136H779.55c-.493,0-.571-.076-.571-.554q0-.972,0-1.944c0-.425.091-.52.5-.52q4.189,0,8.379,0c.4,0,.5.1.5.486q0,1.022,0,2.045c0,.39-.1.486-.5.487Q785.768,1136.006,783.673,1136Zm-4.012-.7h8.012v-1.621h-8.012Z" transform="translate(-23.318 -18.662)" fill="#706f90"/>
      </g>
    </g>
  </g>
</svg>
