<svg xmlns="http://www.w3.org/2000/svg" xmlns:xlink="http://www.w3.org/1999/xlink" width="50" height="50" viewBox="0 0 50 50">
  <defs>
    <clipPath id="clip-logoutIcon">
      <rect width="50" height="50"/>
    </clipPath>
  </defs>
  <g id="logoutIcon" clip-path="url(#clip-logoutIcon)">
    <g id="Group_83" data-name="Group 83" transform="translate(1103.436 344.348)">
      <g id="Group_84" data-name="Group 84" transform="translate(-0.587 34.414)">
        <path id="Path_202" data-name="Path 202" d="M-1082.359-336.933h-6.565a4.93,4.93,0,0,1-4.925-4.924v-22.981a4.93,4.93,0,0,1,4.925-4.924h6.565a1.642,1.642,0,0,1,1.642,1.641,1.642,1.642,0,0,1-1.642,1.642h-6.565a1.644,1.644,0,0,0-1.642,1.641v22.981a1.644,1.644,0,0,0,1.642,1.641h6.565a1.642,1.642,0,0,1,1.642,1.642A1.642,1.642,0,0,1-1082.359-336.933Z" fill="#fff"/>
        <path id="Path_203" data-name="Path 203" d="M-1061.146-352.72a1.643,1.643,0,0,0,0-1.255,1.652,1.652,0,0,0-.355-.534l-8.207-8.207a1.641,1.641,0,0,0-2.321,0,1.642,1.642,0,0,0,0,2.322l5.405,5.4h-15.735a1.641,1.641,0,0,0-1.641,1.641,1.642,1.642,0,0,0,1.641,1.642h15.735l-5.405,5.4a1.641,1.641,0,0,0,0,2.321,1.636,1.636,0,0,0,1.161.481,1.632,1.632,0,0,0,1.16-.481l8.207-8.207A1.648,1.648,0,0,0-1061.146-352.72Z" fill="#fff"/>
      </g>
    </g>
  </g>
</svg>
