<svg xmlns="http://www.w3.org/2000/svg" xmlns:xlink="http://www.w3.org/1999/xlink" width="95" height="95" viewBox="0 0 95 95">
  <defs>
    <clipPath id="clip-logoIcon3">
      <rect width="95" height="95"/>
    </clipPath>
  </defs>
  <g id="logoIcon3" clip-path="url(#clip-logoIcon3)">
    <g id="Group_12" data-name="Group 12" transform="translate(-946.801 -285.73)">
      <path id="Rectangle_5329" data-name="Rectangle 5329" d="M5,0H86.96a5,5,0,0,1,5,5V86.96a5,5,0,0,1-5,5H5c-1.033,0-1.313-1.777-2.363-2.5C1.557,88.748,0,88.689,0,86.96V5A5,5,0,0,1,5,0Z" transform="translate(947.801 287.649)" fill="#73a0fa"/>
      <path id="Rectangle_5329_-_Outline" data-name="Rectangle 5329 - Outline" d="M7.1-3H81.7A10.112,10.112,0,0,1,91.8,7.1V81.7A10.112,10.112,0,0,1,81.7,91.8H7.1A10.112,10.112,0,0,1-3,81.7V7.1A10.112,10.112,0,0,1,7.1-3ZM81.7,89.96A8.274,8.274,0,0,0,89.96,81.7V7.1A8.274,8.274,0,0,0,81.7-1.163H7.1A8.274,8.274,0,0,0-1.163,7.1V81.7A8.274,8.274,0,0,0,7.1,89.96Z" transform="translate(949.801 288.73)" fill="#555da5"/>
      <g id="Group_11" data-name="Group 11" transform="translate(957.151 296.08)">
        <path id="Path_6208" data-name="Path 6208" d="M2251.464-412.052,2238.13-399.01a2.739,2.739,0,0,0-.781,2.413l3.182,18.381a4.323,4.323,0,0,1-.954,3.566,4.412,4.412,0,0,1-3.38,1.585,4.336,4.336,0,0,1-2.04-.512l-16.541-8.668a2.694,2.694,0,0,0-1.271-.315,2.686,2.686,0,0,0-1.259.315l-16.714,8.73a4.473,4.473,0,0,1-2.039.5,4.418,4.418,0,0,1-3.38-1.6,4.33,4.33,0,0,1-.944-3.59l3.3-18.346a2.72,2.72,0,0,0-.779-2.433l-13.357-12.972a4.384,4.384,0,0,1-1.119-4.51,4.368,4.368,0,0,1,3.543-3l18.462-2.716a2.736,2.736,0,0,0,2.052-1.481l3.572-7.247a12.055,12.055,0,0,0,1.243-5.322v-3.158h-.722a3.5,3.5,0,0,1-2.526-1.024,3.5,3.5,0,0,1-1.024-2.528,3.349,3.349,0,0,1,.973-2.159,3.346,3.346,0,0,1,2.366-.979h16.432a3.5,3.5,0,0,1,2.527,1.024,3.5,3.5,0,0,1,1.023,2.528,3.345,3.345,0,0,1-.972,2.158,3.316,3.316,0,0,1-2.356.979h-.932v3.193a12.046,12.046,0,0,0,1.251,5.349l3.539,7.146a2.726,2.726,0,0,0,2.05,1.492l18.464,2.658a4.373,4.373,0,0,1,3.556,2.983,4.354,4.354,0,0,1-1.107,4.512Zm-18.156,10.112,12.81-12.518L2228.39-417a5.538,5.538,0,0,1-4.15-3.008l-5.076-10.246a12.064,12.064,0,0,1-1.252-5.351V-438.6a.793.793,0,0,0-.793-.794h-1.628a.794.794,0,0,0-.794.794v3.006a12.04,12.04,0,0,1-1.241,5.322l-5.064,10.279a5.55,5.55,0,0,1-4.138,3.018l-17.727,2.6,13.252,12.879a4.388,4.388,0,0,1,1.27,3.928l-3.276,18.194,16.039-8.363a5.544,5.544,0,0,1,2.553-.63,5.546,5.546,0,0,1,2.553.63l15.875,8.322-3.066-17.639A5.516,5.516,0,0,1,2233.308-401.94Z" transform="translate(-2179.069 446.84)" fill="#fff"/>
        <path id="Path_6208_-_Outline" data-name="Path 6208 - Outline" d="M2222.74-448.574a4.238,4.238,0,0,1,1.631.324,4.24,4.24,0,0,1,1.384.925,4.235,4.235,0,0,1,.936,1.414,4.244,4.244,0,0,1,.311,1.667v.035a4.105,4.105,0,0,1-1.193,2.65h0a4.058,4.058,0,0,1-1.326.892,4.062,4.062,0,0,1-1.568.313h-.171v2.428a11.332,11.332,0,0,0,1.172,5.009l3.538,7.146a1.962,1.962,0,0,0,1.475,1.074l18.462,2.658a5.132,5.132,0,0,1,2.591,1.152,5.135,5.135,0,0,1,1.584,2.35,5.115,5.115,0,0,1,.115,2.837,5.112,5.112,0,0,1-1.183,2.223v.012l-.191.187-.035.035,0,0L2236.93-400.2a1.97,1.97,0,0,0-.562,1.736h0l3.182,18.378a5.124,5.124,0,0,1-.092,2.221,5.134,5.134,0,0,1-1.03,1.97,5.163,5.163,0,0,1-3.965,1.858h0a5.118,5.118,0,0,1-2.4-.6l-16.542-8.669a1.934,1.934,0,0,0-.905-.225h0a1.93,1.93,0,0,0-.9.225l-.005,0-16.717,8.731a5.261,5.261,0,0,1-2.388.586h-.006a5.171,5.171,0,0,1-3.964-1.871,5.12,5.12,0,0,1-1.028-1.985,5.128,5.128,0,0,1-.081-2.234l3.3-18.343a1.953,1.953,0,0,0-.561-1.749L2178.9-413.139a5.139,5.139,0,0,1-1.416-2.459,5.145,5.145,0,0,1,.1-2.833,5.131,5.131,0,0,1,1.576-2.358,5.127,5.127,0,0,1,2.586-1.161l18.462-2.716a1.974,1.974,0,0,0,1.478-1.065l3.57-7.244a11.354,11.354,0,0,0,1.163-4.984v-2.392h-.009a4.237,4.237,0,0,1-1.631-.324,4.24,4.24,0,0,1-1.384-.924,4.235,4.235,0,0,1-.937-1.414,4.242,4.242,0,0,1-.311-1.667v-.035a4.107,4.107,0,0,1,1.2-2.653,4.087,4.087,0,0,1,1.334-.891,4.089,4.089,0,0,1,1.573-.313h16.486Zm2.731,4.288a2.744,2.744,0,0,0-.8-1.957,2.751,2.751,0,0,0-1.974-.8h-16.443a2.565,2.565,0,0,0-1.825.755,2.579,2.579,0,0,0-.749,1.648,2.747,2.747,0,0,0,.8,1.957,2.714,2.714,0,0,0,1.932.8h1.54v3.923a12.852,12.852,0,0,1-.336,2.906,12.847,12.847,0,0,1-.986,2.754l-3.573,7.252a3.507,3.507,0,0,1-2.626,1.9l-18.465,2.716a3.623,3.623,0,0,0-2.922,2.471v0a3.639,3.639,0,0,0,.924,3.723l13.357,12.973a3.481,3.481,0,0,1,1,3.118l-3.3,18.351a3.555,3.555,0,0,0,.777,2.956l0,0a3.645,3.645,0,0,0,2.791,1.32,3.727,3.727,0,0,0,1.687-.414l16.711-8.728a3.464,3.464,0,0,1,1.614-.4h.008a3.475,3.475,0,0,1,1.621.4l16.544,8.67a3.584,3.584,0,0,0,1.679.422,3.637,3.637,0,0,0,2.793-1.31l0,0a3.549,3.549,0,0,0,.786-2.935v-.006l-3.182-18.383a3.5,3.5,0,0,1,1-3.088l13.1-12.818v0l.234-.226a3.607,3.607,0,0,0,.912-3.719l0-.006a3.629,3.629,0,0,0-2.933-2.461h0l-18.466-2.658a3.491,3.491,0,0,1-2.627-1.911l-3.538-7.145a12.816,12.816,0,0,1-.994-2.767,12.8,12.8,0,0,1-.336-2.921v-3.958h1.7a2.565,2.565,0,0,0,1.808-.753l0,0A2.58,2.58,0,0,0,2225.471-444.287Zm-10.089,2.4a1.561,1.561,0,0,1,1.559,1.559v2.992a11.358,11.358,0,0,0,1.173,5.012l5.076,10.245a4.774,4.774,0,0,0,3.574,2.59l19.264,2.761-13.92,13.6a4.748,4.748,0,0,0-1.365,4.212l3.332,19.168-17.251-9.043a4.8,4.8,0,0,0-2.2-.542,4.8,4.8,0,0,0-2.2.543l-17.421,9.085,3.552-19.729a3.615,3.615,0,0,0-1.049-3.242h0l-14.364-13.96,19.26-2.824a4.787,4.787,0,0,0,3.563-2.6l5.065-10.279a11.347,11.347,0,0,0,1.162-4.984v-3.006a1.561,1.561,0,0,1,1.56-1.559Zm27.356,26.234-16.2-2.321a6.3,6.3,0,0,1-4.723-3.423v0l-5.076-10.246a12.836,12.836,0,0,1-.994-2.768,12.816,12.816,0,0,1-.337-2.922v-2.992a.028.028,0,0,0-.028-.029h-1.628a.029.029,0,0,0-.029.029v3.006a12.821,12.821,0,0,1-.334,2.906,12.83,12.83,0,0,1-.985,2.754l-5.066,10.281a6.32,6.32,0,0,1-4.708,3.435h0l-16.193,2.374,12.14,11.8a5.145,5.145,0,0,1,1.49,4.611l-3,16.659,14.654-7.642a6.345,6.345,0,0,1,2.905-.716h0a6.342,6.342,0,0,1,2.905.716l14.5,7.6-2.8-16.109a6.278,6.278,0,0,1,1.8-5.569Z" transform="translate(-2177.333 448.574)" fill="#555da5"/>
        <g id="Group_10" data-name="Group 10" transform="translate(15.111 14.298)">
          <path id="Path_6207" data-name="Path 6207" d="M2257.049-343.452a8.652,8.652,0,0,0-2,7.168l2.214,12.762-11.48-6.014a8.853,8.853,0,0,0-4.033-.991,8.541,8.541,0,0,0-3.01.548,7.908,7.908,0,0,0-1.012.442l-11.611,6.061,2.389-13.31a7.5,7.5,0,0,0-2.167-6.713l-6.616-4.563v-.279s13.021,5.911,22.027.828c9.258,4.415,20.114-1.16,20.966-1.534l-5.187,5.082a3.565,3.565,0,0,0-.444.49Z" transform="translate(-2219.444 372.044)" fill="#ffd217"/>
          <g id="Group_9" data-name="Group 9" transform="translate(0 0)">
            <path id="Path_2" data-name="Path 2" d="M1295.03,739.526s31.44,10.623,35.6-23.683c2.4,4.965,1.074,32.99-28.954,47.524-2.242,2.859,11.725-15.369,12.526-18.679C1301.395,747.7,1295.03,739.526,1295.03,739.526Z" transform="translate(-1295.03 -715.843)" fill="#ffe05d"/>
            <circle id="Ellipse_2" data-name="Ellipse 2" cx="3.764" cy="3.764" r="3.764" transform="translate(17.027 13.594)" fill="#ffe05d"/>
          </g>
        </g>
      </g>
    </g>
  </g>
</svg>
