<svg xmlns="http://www.w3.org/2000/svg" xmlns:xlink="http://www.w3.org/1999/xlink" width="99" height="99" viewBox="0 0 99 99">
  <defs>
    <clipPath id="clip-quickStartSectionIcon">
      <rect width="99" height="99"/>
    </clipPath>
  </defs>
  <g id="quickStartSectionIcon" clip-path="url(#clip-quickStartSectionIcon)">
    <g id="Group_140" data-name="Group 140" transform="translate(-454 -133)">
      <rect id="Rectangle_28" data-name="Rectangle 28" width="100" height="100" transform="translate(454 133)" fill="#e6e8eb"/>
      <g id="Group_30" data-name="Group 30" transform="translate(465.238 144.238)">
        <path id="Path_66" data-name="Path 66" d="M895.083,704.43a38.689,38.689,0,0,1-22.573,0l.39-1.158,10.9-31.951,10.89,31.951Z" transform="translate(-845.034 -628.588)" fill="#ee3838"/>
        <path id="Path_67" data-name="Path 67" d="M919.813,670.1a38.788,38.788,0,0,1-1.683,11.28l-1.159-.39L885.02,670.1l31.951-10.9,1.159-.39A38.809,38.809,0,0,1,919.813,670.1Z" transform="translate(-842.288 -631.334)" fill="#ee3838"/>
        <path id="Path_68" data-name="Path 68" d="M895.083,637.963l-.39,1.159L883.8,671.073l-10.9-31.951-.39-1.159a38.69,38.69,0,0,1,22.573,0Z" transform="translate(-845.034 -636.28)" fill="#ee3838"/>
        <path id="Path_69" data-name="Path 69" d="M884.773,670.1l-31.951,10.89-1.159.39a38.69,38.69,0,0,1,0-22.573l1.159.39Z" transform="translate(-849.98 -631.334)" fill="#ee3838"/>
        <path id="Path_70" data-name="Path 70" d="M924.36,685.636l1.159.39c-.085.281-.183.561-.268.841-.183.524-.366,1.049-.561,1.573-.488.22-1.024.463-1.61.756-6.341,3.085-17.524,9.866-21.268,20.61-.171.488-.317.976-.451,1.476-.463.158-.927.317-1.39.463-.085.024-.158.049-.244.073l-.39-1.158-10.89-31.951-10.9,31.951-.39,1.158c-.281-.085-.561-.183-.841-.268-.524-.183-1.049-.366-1.573-.561-.22-.488-.464-1.024-.756-1.61-3.085-6.341-9.866-17.524-20.61-21.268-.488-.171-.976-.317-1.476-.451-.159-.463-.317-.927-.464-1.39-.024-.085-.049-.159-.073-.244l1.159-.39,31.951-10.89-31.951-10.9-1.159-.39c.085-.28.183-.561.268-.841.183-.524.366-1.049.561-1.573.488-.219,1.024-.463,1.61-.756,6.341-3.085,17.524-9.866,21.268-20.61.171-.488.317-.976.451-1.476.463-.159.927-.317,1.39-.463.085-.024.159-.049.244-.073l.39,1.159,10.9,31.951,10.89-31.951.39-1.159c.28.085.561.183.841.268.524.183,1.049.366,1.573.561.219.488.476,1.024.756,1.61,3.085,6.341,9.866,17.524,20.61,21.268.488.159.976.317,1.476.451.159.463.317.927.463,1.39.024.085.049.159.073.244l-1.159.39-31.951,10.9Z" transform="translate(-849.677 -635.977)" fill="#fff"/>
      </g>
    </g>
  </g>
</svg>
