<svg xmlns="http://www.w3.org/2000/svg" xmlns:xlink="http://www.w3.org/1999/xlink" width="83" height="83" viewBox="0 0 83 83">
  <defs>
    <clipPath id="clip-favicon">
      <rect width="83" height="83"/>
    </clipPath>
  </defs>
  <g id="favicon" clip-path="url(#clip-favicon)">
    <rect width="83" height="83" fill="#fff"/>
    <g id="favicon-2" data-name="favicon">
      <g id="favicon-3" data-name="favicon" transform="translate(-11 -9)">
        <path id="Path_212" data-name="Path 212" d="M1700.649-348.717a6.339,6.339,0,0,0-1.468,5.252l1.622,9.351-8.412-4.406a6.484,6.484,0,0,0-2.955-.726,6.251,6.251,0,0,0-2.2.4,5.792,5.792,0,0,0-.743.325L1678-334.082l1.751-9.752a5.493,5.493,0,0,0-1.589-4.919l-4.312-4.2v-.188s8.446-4.133,15.567,0c6.849,3.962,14.772.6,15.392.325l-3.8,3.723a2.542,2.542,0,0,0-.325.359Z" transform="translate(-1637.069 402.648)" fill="#ffd217"/>
        <path id="Path_214" data-name="Path 214" d="M1711.666-342.982a6.342,6.342,0,0,0-1.469,5.252l1.623,9.351-8.412-4.406a6.485,6.485,0,0,0-2.955-.726,6.253,6.253,0,0,0-2.2.4,5.819,5.819,0,0,0-.742.325l-8.505,4.44,26.813-18.735-3.8,3.723a2.559,2.559,0,0,0-.323.359Z" transform="translate(-1650.717 395.599)" fill="#fff" opacity="0.3"/>
        <g id="Group_1441" data-name="Group 1441" transform="translate(12 10)">
          <rect id="Rectangle_99" data-name="Rectangle 99" width="80.552" height="80.552" rx="18" fill="none" stroke="#5a5a5a" stroke-width="2"/>
          <path id="Path_213" data-name="Path 213" d="M1685.31-421.152a3.189,3.189,0,0,0,.812-3.3,3.2,3.2,0,0,0-2.6-2.186l-13.527-1.947a2,2,0,0,1-1.5-1.093l-2.593-5.236a8.834,8.834,0,0,1-.921-3.919v-2.34h.683a2.426,2.426,0,0,0,1.725-.717,2.448,2.448,0,0,0,.713-1.579,2.556,2.556,0,0,0-.748-1.854,2.556,2.556,0,0,0-1.853-.749h-12.038a2.446,2.446,0,0,0-1.734.717,2.445,2.445,0,0,0-.713,1.579,2.556,2.556,0,0,0,.748,1.853,2.556,2.556,0,0,0,1.853.749h.526v2.314a8.83,8.83,0,0,1-.91,3.9l-2.617,5.31a2.006,2.006,0,0,1-1.5,1.084l-13.527,1.989a3.2,3.2,0,0,0-2.6,2.194,3.21,3.21,0,0,0,.82,3.3l9.786,9.5a1.992,1.992,0,0,1,.572,1.785l-2.417,13.441a3.172,3.172,0,0,0,.692,2.631,3.238,3.238,0,0,0,2.476,1.17,3.28,3.28,0,0,0,1.495-.367l12.245-6.4a1.975,1.975,0,0,1,.921-.23,1.973,1.973,0,0,1,.931.23l12.118,6.345a3.177,3.177,0,0,0,1.494.375,3.23,3.23,0,0,0,2.478-1.162,3.172,3.172,0,0,0,.7-2.613l-2.331-13.466a2,2,0,0,1,.573-1.768Zm-13.3,7.408a4.039,4.039,0,0,0-1.162,3.578l2.246,12.928-11.631-6.1a4.066,4.066,0,0,0-1.871-.462,4.067,4.067,0,0,0-1.87.462l-11.75,6.131,2.4-13.329a3.217,3.217,0,0,0-.93-2.877l-9.709-9.435,12.989-1.9a4.067,4.067,0,0,0,3.026-2.211l3.71-7.53a8.836,8.836,0,0,0,.909-3.9v-2.2a.582.582,0,0,1,.582-.581h1.193a.581.581,0,0,1,.581.581v2.193a8.833,8.833,0,0,0,.921,3.92l3.719,7.507a4.057,4.057,0,0,0,3.04,2.2l12.989,1.862Z" transform="translate(-1619.288 458.816)" fill="#5a5a5a"/>
          <g id="Group_120" data-name="Group 120" transform="translate(0.014 106.633)">
            <path id="Path_215" data-name="Path 215" d="M1600.124-121.147a4.624,4.624,0,0,1-1.112-.6,2.945,2.945,0,0,1-.79-.862,2.259,2.259,0,0,1-.3-1.184,2.572,2.572,0,0,1,.3-1.25,3.013,3.013,0,0,1,.8-.943,3.69,3.69,0,0,1,1.115-.6,3.948,3.948,0,0,1,1.263-.209,4.7,4.7,0,0,1,1.005.107,4.045,4.045,0,0,1,.921.316,3.5,3.5,0,0,1,.774.516,2.762,2.762,0,0,1,.579.717.376.376,0,0,1,.045.325.645.645,0,0,1-.151.263.555.555,0,0,1-.325.138.526.526,0,0,1-.386-.12,2.974,2.974,0,0,0-1.1-.885,3.331,3.331,0,0,0-1.334-.254,3,3,0,0,0-.835.12,2.686,2.686,0,0,0-.76.351,1.916,1.916,0,0,0-.56.583,1.506,1.506,0,0,0-.219.814,1.269,1.269,0,0,0,.263.814,2.2,2.2,0,0,0,.658.547,4.148,4.148,0,0,0,.867.36q.471.132.9.243.658.205,1.285.463a4.842,4.842,0,0,1,1.112.631,2.963,2.963,0,0,1,.777.889,2.459,2.459,0,0,1,.293,1.237,3.138,3.138,0,0,1-.306,1.4,3.345,3.345,0,0,1-.828,1.077,3.744,3.744,0,0,1-1.209.693,4.274,4.274,0,0,1-1.447.245,4.377,4.377,0,0,1-1.218-.17,4.647,4.647,0,0,1-1.082-.458,3.806,3.806,0,0,1-.863-.684,2.978,2.978,0,0,1-.564-.85.543.543,0,0,1-.039-.476.645.645,0,0,1,.271-.289.447.447,0,0,1,.386-.049.932.932,0,0,1,.377.316,2.234,2.234,0,0,0,.458.641,2.919,2.919,0,0,0,.658.484,3.255,3.255,0,0,0,.789.308,3.613,3.613,0,0,0,.88.107,3.208,3.208,0,0,0,.938-.142,2.65,2.65,0,0,0,.841-.428,2.218,2.218,0,0,0,.605-.706,2,2,0,0,0,.231-.975,1.483,1.483,0,0,0-.231-.85,2.108,2.108,0,0,0-.615-.587,4.3,4.3,0,0,0-.863-.418q-.48-.174-.97-.333a10.436,10.436,0,0,1-1.279-.392Z" transform="translate(-1597.608 126.788)" fill="#5a5a5a"/>
            <path id="Path_216" data-name="Path 216" d="M1633.9-126.307a5.846,5.846,0,0,1,1.842,1.241,5.92,5.92,0,0,1,1.246,1.842,5.579,5.579,0,0,1,.458,2.251,5.655,5.655,0,0,1-.209,1.543,5.922,5.922,0,0,1-.582,1.384,5.775,5.775,0,0,1-.908,1.174,5.737,5.737,0,0,1-1.173.908,5.923,5.923,0,0,1-1.384.583,5.681,5.681,0,0,1-1.543.209,5.676,5.676,0,0,1-1.543-.209,5.919,5.919,0,0,1-1.383-.583,5.514,5.514,0,0,1-1.164-.908,5.888,5.888,0,0,1-.9-1.173,5.749,5.749,0,0,1-.578-1.384,5.751,5.751,0,0,1-.205-1.543,5.712,5.712,0,0,1,.206-1.539,5.755,5.755,0,0,1,.577-1.379,5.823,5.823,0,0,1,.9-1.169,5.764,5.764,0,0,1,1.164-.908,5.711,5.711,0,0,1,1.383-.583,5.808,5.808,0,0,1,1.543-.2A5.639,5.639,0,0,1,1633.9-126.307Zm-4.078,1.041a4.625,4.625,0,0,0-1.476,1,4.748,4.748,0,0,0-.992,1.477,4.519,4.519,0,0,0-.364,1.814,4.585,4.585,0,0,0,.364,1.829,4.728,4.728,0,0,0,.992,1.481,4.65,4.65,0,0,0,1.476,1,4.59,4.59,0,0,0,1.829.364,4.568,4.568,0,0,0,1.818-.364,4.709,4.709,0,0,0,1.481-1,4.688,4.688,0,0,0,1-1.481,4.589,4.589,0,0,0,.365-1.829,4.528,4.528,0,0,0-.364-1.814,4.706,4.706,0,0,0-1-1.477,4.678,4.678,0,0,0-1.481-1,4.558,4.558,0,0,0-1.818-.364,4.579,4.579,0,0,0-1.816.364Z" transform="translate(-1617.324 126.768)" fill="#5a5a5a"/>
            <path id="Path_217" data-name="Path 217" d="M1670.259-116.232l4.358.009a.526.526,0,0,1,.4.159.537.537,0,0,1,.16.395.558.558,0,0,1-.16.405.494.494,0,0,1-.4.155H1669.7a.548.548,0,0,1-.395-.161.527.527,0,0,1-.165-.395v-10.273a.537.537,0,0,1,.165-.395.545.545,0,0,1,.395-.159.546.546,0,0,1,.395.159.537.537,0,0,1,.164.395Z" transform="translate(-1647.471 126.583)" fill="#5a5a5a"/>
            <path id="Path_218" data-name="Path 218" d="M1699.141-126.361a.543.543,0,0,1,.395-.161.541.541,0,0,1,.4.161.527.527,0,0,1,.16.395v6.955a4.076,4.076,0,0,1-.3,1.556,3.887,3.887,0,0,1-.827,1.268,3.946,3.946,0,0,1-1.254.854,3.941,3.941,0,0,1-1.588.316,4.09,4.09,0,0,1-1.614-.316,4.112,4.112,0,0,1-1.289-.854,3.906,3.906,0,0,1-.859-1.268,3.921,3.921,0,0,1-.31-1.556v-6.92a.533.533,0,0,1,.164-.395.548.548,0,0,1,.395-.161.547.547,0,0,1,.395.16.533.533,0,0,1,.164.395v6.894a2.882,2.882,0,0,0,.228,1.138,2.854,2.854,0,0,0,.622.921,2.91,2.91,0,0,0,.934.617,2.955,2.955,0,0,0,1.16.228,2.827,2.827,0,0,0,1.142-.228,2.8,2.8,0,0,0,.9-.613,2.817,2.817,0,0,0,.592-.908,3.035,3.035,0,0,0,.222-1.116v-6.972a.527.527,0,0,1,.172-.391Z" transform="translate(-1663.447 126.604)" fill="#5a5a5a"/>
            <path id="Path_219" data-name="Path 219" d="M1726.287-125.383v9.713a.548.548,0,0,1-.161.395.536.536,0,0,1-.394.164.5.5,0,0,1-.383-.164.564.564,0,0,1-.151-.395v-9.713h-2.763a.527.527,0,0,1-.395-.164.546.546,0,0,1-.16-.395.534.534,0,0,1,.16-.395.527.527,0,0,1,.395-.159h6.709a.527.527,0,0,1,.395.164.549.549,0,0,1,.159.395.535.535,0,0,1-.16.395.541.541,0,0,1-.395.155Z" transform="translate(-1684.223 126.581)" fill="#5a5a5a"/>
            <path id="Path_220" data-name="Path 220" d="M1753.308-115.663a.525.525,0,0,1-.164.395.55.55,0,0,1-.395.16.549.549,0,0,1-.395-.161.527.527,0,0,1-.165-.395v-10.281a.525.525,0,0,1,.164-.395.555.555,0,0,1,.395-.155.558.558,0,0,1,.4.155.525.525,0,0,1,.164.395Z" transform="translate(-1705.352 126.582)" fill="#5a5a5a"/>
            <path id="Path_221" data-name="Path 221" d="M1769-126.307a5.846,5.846,0,0,1,1.842,1.241,5.934,5.934,0,0,1,1.246,1.842,5.583,5.583,0,0,1,.458,2.251,5.636,5.636,0,0,1-.209,1.543,5.923,5.923,0,0,1-.583,1.384,5.749,5.749,0,0,1-.907,1.173,5.722,5.722,0,0,1-1.174.908,5.89,5.89,0,0,1-1.382.583,5.675,5.675,0,0,1-1.543.209,5.677,5.677,0,0,1-1.543-.209,5.91,5.91,0,0,1-1.384-.583,5.531,5.531,0,0,1-1.164-.908,5.915,5.915,0,0,1-.9-1.173,5.771,5.771,0,0,1-.578-1.384,5.78,5.78,0,0,1-.205-1.543,5.722,5.722,0,0,1,.2-1.539,5.769,5.769,0,0,1,.578-1.379,5.827,5.827,0,0,1,.9-1.169,5.783,5.783,0,0,1,1.165-.908,5.717,5.717,0,0,1,1.384-.583,5.8,5.8,0,0,1,1.543-.2A5.639,5.639,0,0,1,1769-126.307Zm-4.078,1.041a4.621,4.621,0,0,0-1.476,1,4.735,4.735,0,0,0-.992,1.477,4.532,4.532,0,0,0-.364,1.814,4.585,4.585,0,0,0,.364,1.829,4.724,4.724,0,0,0,.992,1.481,4.648,4.648,0,0,0,1.476,1,4.583,4.583,0,0,0,1.827.364,4.566,4.566,0,0,0,1.819-.364,4.708,4.708,0,0,0,1.481-1,4.69,4.69,0,0,0,1-1.481,4.59,4.59,0,0,0,.365-1.829,4.529,4.529,0,0,0-.366-1.814,4.705,4.705,0,0,0-1-1.477,4.673,4.673,0,0,0-1.481-1,4.556,4.556,0,0,0-1.82-.364,4.575,4.575,0,0,0-1.828.364Z" transform="translate(-1711.465 126.768)" fill="#5a5a5a"/>
            <path id="Path_222" data-name="Path 222" d="M1805.34-124.246l-.934-1.334a.5.5,0,0,1-.1-.271.643.643,0,0,1,.039-.293.592.592,0,0,1,.165-.235.4.4,0,0,1,.271-.1h.045a.993.993,0,0,1,.178.054h.018a.083.083,0,0,0,.036.022.07.07,0,0,1,.036.022l.035.017a.225.225,0,0,1,.049.045.68.68,0,0,0,.049.053l.026.045,6.227,8.868v-8.583a.543.543,0,0,1,.165-.395.552.552,0,0,1,.4-.164.526.526,0,0,1,.395.164.557.557,0,0,1,.155.395v10.273a.528.528,0,0,1-.132.355.538.538,0,0,1-.325.187.47.47,0,0,1-.106.009.567.567,0,0,1-.418-.168l-.035-.054-.026-.026-6.217-8.887v8.584a.526.526,0,0,1-.165.395.547.547,0,0,1-.395.16.548.548,0,0,1-.395-.16.526.526,0,0,1-.165-.395v-10.261a.526.526,0,0,1,.165-.395.546.546,0,0,1,.395-.16h.045a.774.774,0,0,1,.178.054h.018a.08.08,0,0,0,.036.022.071.071,0,0,1,.035.022.048.048,0,0,1,.036.017.511.511,0,0,1,.156.187.549.549,0,0,1,.057.249Z" transform="translate(-1741.616 126.582)" fill="#5a5a5a"/>
            <path id="Path_223" data-name="Path 223" d="M1839.034-121.147a4.609,4.609,0,0,1-1.112-.6,2.943,2.943,0,0,1-.789-.862,2.26,2.26,0,0,1-.3-1.184,2.572,2.572,0,0,1,.3-1.25,3.007,3.007,0,0,1,.8-.943,3.685,3.685,0,0,1,1.115-.6,3.947,3.947,0,0,1,1.263-.209,4.7,4.7,0,0,1,1.005.107,4.04,4.04,0,0,1,.921.316,3.511,3.511,0,0,1,.773.516,2.775,2.775,0,0,1,.579.717.375.375,0,0,1,.044.325.636.636,0,0,1-.151.263.553.553,0,0,1-.325.138.527.527,0,0,1-.387-.12,2.971,2.971,0,0,0-1.1-.885,3.328,3.328,0,0,0-1.334-.254,3,3,0,0,0-.835.12,2.686,2.686,0,0,0-.76.351,1.922,1.922,0,0,0-.56.583,1.511,1.511,0,0,0-.218.814,1.269,1.269,0,0,0,.263.814,2.2,2.2,0,0,0,.658.547,4.149,4.149,0,0,0,.867.361q.471.132.9.243.658.205,1.285.463a4.829,4.829,0,0,1,1.112.632,2.965,2.965,0,0,1,.779.889,2.455,2.455,0,0,1,.293,1.237,3.142,3.142,0,0,1-.308,1.4,3.34,3.34,0,0,1-.827,1.078,3.744,3.744,0,0,1-1.208.693,4.278,4.278,0,0,1-1.448.245,4.379,4.379,0,0,1-1.218-.17,4.659,4.659,0,0,1-1.082-.458,3.8,3.8,0,0,1-.863-.684,2.97,2.97,0,0,1-.566-.85.547.547,0,0,1-.04-.476.647.647,0,0,1,.271-.29.448.448,0,0,1,.387-.049.935.935,0,0,1,.378.316,2.219,2.219,0,0,0,.458.641,2.914,2.914,0,0,0,.658.484,3.26,3.26,0,0,0,.789.308,3.609,3.609,0,0,0,.88.107,3.206,3.206,0,0,0,.938-.142,2.65,2.65,0,0,0,.841-.428,2.217,2.217,0,0,0,.605-.706,2,2,0,0,0,.231-.975,1.483,1.483,0,0,0-.232-.85,2.1,2.1,0,0,0-.614-.587,4.312,4.312,0,0,0-.863-.418q-.48-.174-.97-.333a10.426,10.426,0,0,1-1.277-.392Z" transform="translate(-1764.112 126.788)" fill="#5a5a5a"/>
          </g>
          <path id="Path_224" data-name="Path 224" d="M1601.043-190.062a1.1,1.1,0,0,0-.767.3,1.052,1.052,0,0,0-.327.78v12.831a1.052,1.052,0,0,0,.323.771,1.08,1.08,0,0,0,.772.313,1.076,1.076,0,0,0,.77-.312,1.052,1.052,0,0,0,.325-.772v-12.831a1.053,1.053,0,0,0-.329-.781A1.1,1.1,0,0,0,1601.043-190.062Z" transform="translate(-1599.229 277.518)" fill="#5a5a5a"/>
          <path id="Path_225" data-name="Path 225" d="M1614.667-186.645a5.468,5.468,0,0,1,1.725-1.159,5.293,5.293,0,0,1,2.1-.424,5.449,5.449,0,0,1,2.059.4,5.583,5.583,0,0,1,1.8,1.2,1.022,1.022,0,0,0,.778.32h0a1.145,1.145,0,0,0,.789-.329,1.088,1.088,0,0,0,.306-.76,1.072,1.072,0,0,0-.326-.768,7.711,7.711,0,0,0-2.522-1.7,7.562,7.562,0,0,0-2.875-.571,7.579,7.579,0,0,0-2.1.286,7.655,7.655,0,0,0-1.842.8,7.448,7.448,0,0,0-1.53,1.231,7.809,7.809,0,0,0-1.152,1.556,7.792,7.792,0,0,0-.73,1.8,7.554,7.554,0,0,0-.263,1.955,7.552,7.552,0,0,0,.27,2.026,7.779,7.779,0,0,0,.759,1.819,7.656,7.656,0,0,0,1.184,1.546,7.5,7.5,0,0,0,1.537,1.184,7.837,7.837,0,0,0,1.812.766,7.436,7.436,0,0,0,2.017.275,7.872,7.872,0,0,0,2.875-.545,7.4,7.4,0,0,0,2.543-1.691,1.075,1.075,0,0,0,.31-.762,1.031,1.031,0,0,0-.328-.789,1.075,1.075,0,0,0-.767-.293h0a1.128,1.128,0,0,0-.772.322,5.125,5.125,0,0,1-1.8,1.2,5.668,5.668,0,0,1-2.053.363h0a5.242,5.242,0,0,1-2.143-.438,5.429,5.429,0,0,1-1.71-1.184,5.548,5.548,0,0,1-1.129-1.73,5.366,5.366,0,0,1-.408-2.068,5.359,5.359,0,0,1,.422-2.119,5.469,5.469,0,0,1,1.167-1.725Z" transform="translate(-1606.865 277.773)" fill="#5a5a5a"/>
          <path id="Path_226" data-name="Path 226" d="M1670.052-185.74a7.873,7.873,0,0,0-1.65-2.418,7.918,7.918,0,0,0-2.418-1.63,7.653,7.653,0,0,0-2.968-.587,8.253,8.253,0,0,0-2.034.263,7.292,7.292,0,0,0-1.813.77,7.518,7.518,0,0,0-1.539,1.191,8.672,8.672,0,0,0-1.191,1.539,8.8,8.8,0,0,0-.751,1.814,7.544,7.544,0,0,0-.275,2.034,7.456,7.456,0,0,0,.276,2.034,8.373,8.373,0,0,0,.751,1.814,7.511,7.511,0,0,0,1.191,1.539,7.007,7.007,0,0,0,1.54,1.209,7.6,7.6,0,0,0,1.813.77,7.562,7.562,0,0,0,2.034.275,7.556,7.556,0,0,0,2.034-.275,7.932,7.932,0,0,0,1.814-.77,7.514,7.514,0,0,0,1.539-1.191,7.562,7.562,0,0,0,1.209-1.558,6.884,6.884,0,0,0,.751-1.814,7.455,7.455,0,0,0,.293-2.047A7.672,7.672,0,0,0,1670.052-185.74Zm-2.034,5.094a5.092,5.092,0,0,1-1.154,1.722,5.262,5.262,0,0,1-1.722,1.155,5.171,5.171,0,0,1-2.1.439,5.072,5.072,0,0,1-2.125-.439,5.085,5.085,0,0,1-1.722-1.155,5.084,5.084,0,0,1-1.154-1.722,5.184,5.184,0,0,1-.421-2.126,5.037,5.037,0,0,1,.421-2.1,5.569,5.569,0,0,1,1.154-1.722,5.369,5.369,0,0,1,1.722-1.155,5.364,5.364,0,0,1,2.125-.421,5.4,5.4,0,0,1,2.1.421,5.37,5.37,0,0,1,1.722,1.155,5.269,5.269,0,0,1,1.154,1.722,5.029,5.029,0,0,1,.421,2.1,5.172,5.172,0,0,1-.426,2.125Z" transform="translate(-1637.89 277.737)" fill="#5a5a5a"/>
          <path id="Path_227" data-name="Path 227" d="M1757.8-187.38a4.278,4.278,0,0,0-.989-1.41,4.3,4.3,0,0,0-1.447-.934,4.6,4.6,0,0,0-1.8-.347h-2.51v2.161h2.492a2.773,2.773,0,0,1,.971.183,2.359,2.359,0,0,1,.769.476,2.164,2.164,0,0,1,.495.714,2.069,2.069,0,0,1,.183.9,1.95,1.95,0,0,1-.183.843,1.988,1.988,0,0,1-.495.733,2.151,2.151,0,0,1-.751.495,2.39,2.39,0,0,1-.953.183h-2.528v2.2h2.51a4.88,4.88,0,0,0,1.8-.33,4.288,4.288,0,0,0,1.447-.934,4.2,4.2,0,0,0,.99-1.392,4.406,4.406,0,0,0,.366-1.777,4.379,4.379,0,0,0-.366-1.759Z" transform="translate(-1704.55 277.526)" fill="#5a5a5a"/>
          <path id="Path_228" data-name="Path 228" d="M1784.586-181.408a5.794,5.794,0,0,0,.921-.4,4.847,4.847,0,0,0,1.154-.952,4.821,4.821,0,0,0,.751-1.3,4.338,4.338,0,0,0,.275-1.558,4.37,4.37,0,0,0-.349-1.759,4.475,4.475,0,0,0-.989-1.41,4.2,4.2,0,0,0-1.465-.934,4.454,4.454,0,0,0-1.777-.347h-3.743a1.11,1.11,0,0,0-.77.312,1.1,1.1,0,0,0-.33.77v12.844a1.1,1.1,0,0,0,.33.77,1.08,1.08,0,0,0,.77.312,1.08,1.08,0,0,0,.769-.312,1.026,1.026,0,0,0,.33-.77v-5.039h1.722l3.42,5.57a1.053,1.053,0,0,0,.624.495,1.016,1.016,0,0,0,.312.055,1.092,1.092,0,0,0,.495-.109,1.04,1.04,0,0,0,.568-.641,1.054,1.054,0,0,0-.092-.9Zm-1.484-1.973h-2.639v-4.526h2.619a2.77,2.77,0,0,1,.971.183,2.357,2.357,0,0,1,.77.476,2.478,2.478,0,0,1,.495.714,2.073,2.073,0,0,1,.183.9,1.943,1.943,0,0,1-.183.843,2.246,2.246,0,0,1-.495.733,2.423,2.423,0,0,1-.77.495,2.275,2.275,0,0,1-.954.179Z" transform="translate(-1723.507 277.526)" fill="#5a5a5a"/>
          <path id="Path_229" data-name="Path 229" d="M1825.947-185.74a8.154,8.154,0,0,0-1.63-2.418,8.157,8.157,0,0,0-2.419-1.63,7.657,7.657,0,0,0-2.968-.587,8.135,8.135,0,0,0-2.034.263,7.739,7.739,0,0,0-1.833.77,7.42,7.42,0,0,0-1.521,1.191,8.674,8.674,0,0,0-1.191,1.539,7.167,7.167,0,0,0-.751,1.814,7.554,7.554,0,0,0-.275,2.034,7.476,7.476,0,0,0,.275,2.034,6.915,6.915,0,0,0,.751,1.814,7.522,7.522,0,0,0,1.191,1.539,7.025,7.025,0,0,0,1.539,1.209,7.606,7.606,0,0,0,1.814.77,7.45,7.45,0,0,0,2.034.275,7.555,7.555,0,0,0,2.034-.275,7.94,7.94,0,0,0,1.814-.77,8.063,8.063,0,0,0,1.539-1.191,7.5,7.5,0,0,0,1.19-1.558,7.6,7.6,0,0,0,.77-1.814,7.485,7.485,0,0,0,.275-2.034A7.35,7.35,0,0,0,1825.947-185.74Zm-2.015,5.094a5.367,5.367,0,0,1-1.154,1.722,5.469,5.469,0,0,1-1.722,1.155,5.2,5.2,0,0,1-2.126.439,5.2,5.2,0,0,1-2.125-.439,5.19,5.19,0,0,1-1.71-1.155,5.088,5.088,0,0,1-1.154-1.722,5.185,5.185,0,0,1-.439-2.126,5.35,5.35,0,0,1,.421-2.1,5.632,5.632,0,0,1,1.172-1.722,5.291,5.291,0,0,1,1.71-1.155,5.5,5.5,0,0,1,2.125-.421,5.5,5.5,0,0,1,2.126.421,5.579,5.579,0,0,1,1.722,1.155,5.579,5.579,0,0,1,1.154,1.722,5.345,5.345,0,0,1,.421,2.1,5.5,5.5,0,0,1-.418,2.125Z" transform="translate(-1746.554 277.737)" fill="#5a5a5a"/>
          <path id="Path_230" data-name="Path 230" d="M1720.649-188.985v-1.077h-1.084a1.086,1.086,0,0,0-.781.32,1.072,1.072,0,0,0-.321.774v9.459l-6.98-9.935a.92.92,0,0,0-.254-.318l-.132-.122.008-.058h-.178a1.359,1.359,0,0,0-.433-.1,1.078,1.078,0,0,0-.771.312,1.053,1.053,0,0,0-.325.772v12.807a1.054,1.054,0,0,0,.323.771,1.079,1.079,0,0,0,.772.313,1.077,1.077,0,0,0,.769-.312,1.053,1.053,0,0,0,.325-.772v-9.455l7.04,10.059.121.153a1.1,1.1,0,0,0,.8.328l.207-.018a1.073,1.073,0,0,0,.634-.364,1.053,1.053,0,0,0,.254-.7v-12.82A.037.037,0,0,0,1720.649-188.985Z" transform="translate(-1675.523 277.518)" fill="#5a5a5a"/>
        </g>
      </g>
    </g>
  </g>
</svg>
