<svg xmlns="http://www.w3.org/2000/svg" xmlns:xlink="http://www.w3.org/1999/xlink" width="221.682" height="75.975" viewBox="0 0 221.682 75.975">
  <defs>
    <linearGradient id="linear-gradient" y1="0.5" x2="1" y2="0.5" gradientUnits="objectBoundingBox">
      <stop offset="0" stop-color="#2af499"/>
      <stop offset="1" stop-color="#2ac4ea"/>
    </linearGradient>
  </defs>
  <g id="iconNavBarLogo" transform="translate(-1603.914 472.309)">
    <g id="Group_126" data-name="Group 126" transform="translate(1603.914 -472.309)">
      <rect id="Rectangle_100" data-name="Rectangle 100" width="75.975" height="75.975" rx="19" transform="translate(0)" fill="url(#linear-gradient)"/>
      <g id="Group_125" data-name="Group 125" transform="translate(12.471 11.707)">
        <path id="Path_231" data-name="Path 231" d="M1699.44-349a6.053,6.053,0,0,0-1.4,5.014l1.549,8.927-8.03-4.206a6.189,6.189,0,0,0-2.821-.693,5.968,5.968,0,0,0-2.1.383,5.492,5.492,0,0,0-.709.31l-8.119,4.239,1.671-9.31a5.243,5.243,0,0,0-1.517-4.7l-4.117-4.011v-.179s8.063-3.946,14.861,0c6.538,3.782,14.1.571,14.7.31l-3.628,3.554a2.442,2.442,0,0,0-.31.343Z" transform="translate(-1663.127 378.781)" fill="#ffd217"/>
        <path id="Path_232" data-name="Path 232" d="M1682.931-422.282a3.045,3.045,0,0,0,.775-3.155,3.057,3.057,0,0,0-2.486-2.087l-12.913-1.859a1.907,1.907,0,0,1-1.435-1.043l-2.475-5a8.432,8.432,0,0,1-.875-3.741V-441.4h.652a2.318,2.318,0,0,0,1.647-.685,2.338,2.338,0,0,0,.68-1.51,2.441,2.441,0,0,0-2.484-2.485h-11.493a2.335,2.335,0,0,0-1.655.685,2.335,2.335,0,0,0-.68,1.51,2.441,2.441,0,0,0,2.484,2.485h.5v2.209a8.434,8.434,0,0,1-.868,3.727l-2.5,5.069a1.916,1.916,0,0,1-1.435,1.036l-12.913,1.9a3.056,3.056,0,0,0-2.478,2.1,3.066,3.066,0,0,0,.782,3.155l9.343,9.073a1.9,1.9,0,0,1,.546,1.7l-2.307,12.831a3.029,3.029,0,0,0,.661,2.511,3.09,3.09,0,0,0,2.364,1.117,3.13,3.13,0,0,0,1.427-.35l11.69-6.106a1.88,1.88,0,0,1,.881-.22,1.887,1.887,0,0,1,.889.22l11.568,6.057a3.037,3.037,0,0,0,1.427.359,3.082,3.082,0,0,0,2.364-1.109,3.027,3.027,0,0,0,.668-2.495l-2.226-12.856a1.91,1.91,0,0,1,.546-1.688Zm-12.7,7.076a3.856,3.856,0,0,0-1.109,3.416l2.144,12.342-11.1-5.821a3.881,3.881,0,0,0-1.785-.44,3.882,3.882,0,0,0-1.785.44l-11.217,5.853,2.291-12.725a3.069,3.069,0,0,0-.888-2.747l-9.269-9.008,12.4-1.818a3.883,3.883,0,0,0,2.894-2.111l3.542-7.189a8.431,8.431,0,0,0,.868-3.726v-2.1a.555.555,0,0,1,.555-.555h1.139a.556.556,0,0,1,.556.555v2.093a8.432,8.432,0,0,0,.876,3.742l3.55,7.166a3.874,3.874,0,0,0,2.9,2.1l12.4,1.777Z" transform="translate(-1632.833 446.078)" fill="#fff"/>
        <path id="Path_233" data-name="Path 233" d="M1710.641-343.168a6.053,6.053,0,0,0-1.4,5.014l1.549,8.927-8.03-4.206a6.19,6.19,0,0,0-2.821-.693,5.97,5.97,0,0,0-2.1.383,5.5,5.5,0,0,0-.709.31l-8.12,4.239,25.6-17.886-3.628,3.554a2.451,2.451,0,0,0-.31.343Z" transform="translate(-1674.329 372.948)" fill="#fff" opacity="0.3"/>
      </g>
    </g>
    <g id="Group_130" data-name="Group 130" transform="translate(1696.39 -458.933)">
      <g id="Group_127" data-name="Group 127" transform="translate(0 31.149)">
        <path id="Path_234" data-name="Path 234" d="M1601.688-117.675a7.464,7.464,0,0,1-1.8-.964,4.759,4.759,0,0,1-1.279-1.392,3.649,3.649,0,0,1-.488-1.918,4.151,4.151,0,0,1,.488-2.018,4.863,4.863,0,0,1,1.286-1.523,5.967,5.967,0,0,1,1.8-.962,6.382,6.382,0,0,1,2.04-.338,7.587,7.587,0,0,1,1.623.172,6.533,6.533,0,0,1,1.48.51,5.664,5.664,0,0,1,1.249.833,4.465,4.465,0,0,1,.934,1.158.607.607,0,0,1,.072.524,1.038,1.038,0,0,1-.244.423.894.894,0,0,1-.525.223.855.855,0,0,1-.625-.193,4.8,4.8,0,0,0-1.781-1.43,5.375,5.375,0,0,0-2.155-.41,4.854,4.854,0,0,0-1.35.193,4.329,4.329,0,0,0-1.228.567,3.093,3.093,0,0,0-.905.941,2.438,2.438,0,0,0-.352,1.315,2.047,2.047,0,0,0,.417,1.315,3.541,3.541,0,0,0,1.056.883,6.7,6.7,0,0,0,1.4.582q.761.222,1.451.394,1.063.332,2.075.747a7.822,7.822,0,0,1,1.8,1.02,4.794,4.794,0,0,1,1.256,1.436,3.969,3.969,0,0,1,.475,2,5.074,5.074,0,0,1-.5,2.262,5.407,5.407,0,0,1-1.336,1.74,6.059,6.059,0,0,1-1.953,1.119,6.9,6.9,0,0,1-2.334.4,7.07,7.07,0,0,1-1.967-.274,7.51,7.51,0,0,1-1.746-.739,6.156,6.156,0,0,1-1.393-1.105,4.8,4.8,0,0,1-.912-1.372.879.879,0,0,1-.065-.769,1.045,1.045,0,0,1,.438-.467.723.723,0,0,1,.626-.078,1.509,1.509,0,0,1,.611.51,3.6,3.6,0,0,0,.739,1.035,4.713,4.713,0,0,0,1.056.782,5.26,5.26,0,0,0,1.279.5,5.83,5.83,0,0,0,1.422.172,5.182,5.182,0,0,0,1.515-.23,4.282,4.282,0,0,0,1.357-.69,3.574,3.574,0,0,0,.978-1.141,3.23,3.23,0,0,0,.373-1.574,2.4,2.4,0,0,0-.373-1.372,3.388,3.388,0,0,0-.991-.948,6.968,6.968,0,0,0-1.394-.675q-.776-.28-1.566-.537A16.85,16.85,0,0,1,1601.688-117.675Z" transform="translate(-1597.597 126.79)" fill="#2ac4ea"/>
        <path id="Path_235" data-name="Path 235" d="M1638.846-126.027a9.438,9.438,0,0,1,2.973,2,9.575,9.575,0,0,1,2.012,2.966,9.01,9.01,0,0,1,.739,3.635,9.113,9.113,0,0,1-.338,2.492,9.541,9.541,0,0,1-.94,2.234,9.313,9.313,0,0,1-1.466,1.9,9.253,9.253,0,0,1-1.9,1.465,9.551,9.551,0,0,1-2.234.941,9.171,9.171,0,0,1-2.492.338,9.173,9.173,0,0,1-2.493-.338,9.555,9.555,0,0,1-2.233-.941,8.911,8.911,0,0,1-1.881-1.465,9.53,9.53,0,0,1-1.451-1.9,9.313,9.313,0,0,1-.933-2.234,9.311,9.311,0,0,1-.33-2.492,9.249,9.249,0,0,1,.33-2.486,9.335,9.335,0,0,1,.933-2.226,9.406,9.406,0,0,1,1.451-1.889,9.311,9.311,0,0,1,1.881-1.465,9.232,9.232,0,0,1,2.233-.941,9.384,9.384,0,0,1,2.493-.329A9.109,9.109,0,0,1,1638.846-126.027Zm-6.579,1.68a7.467,7.467,0,0,0-2.385,1.608,7.668,7.668,0,0,0-1.6,2.385,7.312,7.312,0,0,0-.588,2.93,7.405,7.405,0,0,0,.588,2.953,7.637,7.637,0,0,0,1.6,2.392,7.513,7.513,0,0,0,2.385,1.608,7.412,7.412,0,0,0,2.952.589,7.38,7.38,0,0,0,2.938-.589,7.607,7.607,0,0,0,2.392-1.608,7.571,7.571,0,0,0,1.608-2.392,7.406,7.406,0,0,0,.589-2.953,7.313,7.313,0,0,0-.589-2.93,7.6,7.6,0,0,0-1.608-2.385,7.559,7.559,0,0,0-2.392-1.608,7.363,7.363,0,0,0-2.938-.588A7.4,7.4,0,0,0,1632.267-124.347Z" transform="translate(-1612.037 126.775)" fill="#2ac4ea"/>
        <path id="Path_236" data-name="Path 236" d="M1670.949-109.919l7.039.015a.857.857,0,0,1,.632.257.864.864,0,0,1,.259.633.9.9,0,0,1-.259.654.8.8,0,0,1-.632.251h-7.944a.886.886,0,0,1-.639-.259.847.847,0,0,1-.266-.631V-125.59a.869.869,0,0,1,.266-.648.882.882,0,0,1,.639-.257.883.883,0,0,1,.639.257.868.868,0,0,1,.266.648Z" transform="translate(-1634.121 126.639)" fill="#2ac4ea"/>
        <path id="Path_237" data-name="Path 237" d="M1703.5-126.266a.877.877,0,0,1,.639-.259.872.872,0,0,1,.646.259.856.856,0,0,1,.259.631V-114.4a6.587,6.587,0,0,1-.481,2.513,6.271,6.271,0,0,1-1.336,2.047,6.385,6.385,0,0,1-2.025,1.379,6.364,6.364,0,0,1-2.564.51,6.607,6.607,0,0,1-2.607-.51,6.638,6.638,0,0,1-2.083-1.379,6.309,6.309,0,0,1-1.387-2.047,6.331,6.331,0,0,1-.5-2.513v-11.176a.862.862,0,0,1,.266-.646.883.883,0,0,1,.639-.259.884.884,0,0,1,.64.259.865.865,0,0,1,.265.646v11.133a4.644,4.644,0,0,0,.367,1.838,4.6,4.6,0,0,0,1.006,1.495,4.7,4.7,0,0,0,1.508,1,4.774,4.774,0,0,0,1.875.367,4.569,4.569,0,0,0,1.845-.367,4.517,4.517,0,0,0,1.451-.99,4.542,4.542,0,0,0,.956-1.466,4.917,4.917,0,0,0,.359-1.8v-11.263A.845.845,0,0,1,1703.5-126.266Z" transform="translate(-1645.822 126.655)" fill="#2ac4ea"/>
        <path id="Path_238" data-name="Path 238" d="M1729-124.7v15.686a.884.884,0,0,1-.259.639.864.864,0,0,1-.646.266.8.8,0,0,1-.617-.266.912.912,0,0,1-.244-.639V-124.7h-4.468a.848.848,0,0,1-.632-.265.88.88,0,0,1-.259-.639.86.86,0,0,1,.259-.633.858.858,0,0,1,.632-.257H1733.6a.849.849,0,0,1,.632.265.887.887,0,0,1,.258.64.859.859,0,0,1-.258.639.873.873,0,0,1-.632.251Z" transform="translate(-1661.044 126.639)" fill="#2ac4ea"/>
        <path id="Path_239" data-name="Path 239" d="M1754-109a.848.848,0,0,1-.265.631.887.887,0,0,1-.64.259.886.886,0,0,1-.639-.259.846.846,0,0,1-.265-.631V-125.6a.841.841,0,0,1,.265-.64.9.9,0,0,1,.639-.251.9.9,0,0,1,.64.251.842.842,0,0,1,.265.64Z" transform="translate(-1676.52 126.639)" fill="#2ac4ea"/>
        <path id="Path_240" data-name="Path 240" d="M1773.929-126.027a9.443,9.443,0,0,1,2.973,2,9.581,9.581,0,0,1,2.012,2.966,9.01,9.01,0,0,1,.739,3.635,9.122,9.122,0,0,1-.338,2.492,9.552,9.552,0,0,1-.94,2.234,9.294,9.294,0,0,1-1.465,1.9,9.251,9.251,0,0,1-1.9,1.465,9.543,9.543,0,0,1-2.234.941,9.174,9.174,0,0,1-2.492.338,9.17,9.17,0,0,1-2.493-.338,9.545,9.545,0,0,1-2.234-.941,8.913,8.913,0,0,1-1.881-1.465,9.542,9.542,0,0,1-1.451-1.9,9.323,9.323,0,0,1-.933-2.234,9.311,9.311,0,0,1-.33-2.492,9.249,9.249,0,0,1,.33-2.486,9.345,9.345,0,0,1,.933-2.226,9.417,9.417,0,0,1,1.451-1.889,9.313,9.313,0,0,1,1.881-1.465,9.224,9.224,0,0,1,2.234-.941,9.381,9.381,0,0,1,2.493-.329A9.11,9.11,0,0,1,1773.929-126.027Zm-6.579,1.68a7.468,7.468,0,0,0-2.385,1.608,7.652,7.652,0,0,0-1.6,2.385,7.308,7.308,0,0,0-.589,2.93,7.4,7.4,0,0,0,.589,2.953,7.621,7.621,0,0,0,1.6,2.392,7.514,7.514,0,0,0,2.385,1.608,7.409,7.409,0,0,0,2.952.589,7.377,7.377,0,0,0,2.938-.589,7.6,7.6,0,0,0,2.392-1.608,7.579,7.579,0,0,0,1.608-2.392,7.406,7.406,0,0,0,.589-2.953,7.313,7.313,0,0,0-.589-2.93,7.609,7.609,0,0,0-1.608-2.385,7.555,7.555,0,0,0-2.392-1.608,7.36,7.36,0,0,0-2.938-.588A7.392,7.392,0,0,0,1767.35-124.347Z" transform="translate(-1681 126.775)" fill="#2ac4ea"/>
        <path id="Path_241" data-name="Path 241" d="M1806.031-122.862l-1.508-2.154a.815.815,0,0,1-.165-.438,1.046,1.046,0,0,1,.064-.474.952.952,0,0,1,.266-.38.634.634,0,0,1,.438-.159h.072a1.624,1.624,0,0,1,.287.087h.029a.127.127,0,0,0,.057.036.118.118,0,0,1,.057.036l.058.028a.362.362,0,0,1,.079.072c.024.028.05.057.079.085l.043.072,10.056,14.322V-125.59a.874.874,0,0,1,.265-.64.89.89,0,0,1,.653-.265.843.843,0,0,1,.639.265.9.9,0,0,1,.252.64V-109a.857.857,0,0,1-.208.574.87.87,0,0,1-.525.3.755.755,0,0,1-.173.015.914.914,0,0,1-.675-.272l-.057-.087-.043-.043-10.041-14.351V-109a.846.846,0,0,1-.265.631.886.886,0,0,1-.639.259.886.886,0,0,1-.64-.259.847.847,0,0,1-.265-.631v-16.578a.849.849,0,0,1,.265-.631.884.884,0,0,1,.64-.259h.072a1.241,1.241,0,0,1,.287.087h.029a.127.127,0,0,0,.057.036.118.118,0,0,1,.057.036.08.08,0,0,1,.058.028.827.827,0,0,1,.251.3.889.889,0,0,1,.093.4Z" transform="translate(-1703.084 126.639)" fill="#2ac4ea"/>
        <path id="Path_242" data-name="Path 242" d="M1840.6-117.675a7.453,7.453,0,0,1-1.795-.964,4.753,4.753,0,0,1-1.279-1.392,3.65,3.65,0,0,1-.489-1.918,4.153,4.153,0,0,1,.489-2.018,4.867,4.867,0,0,1,1.286-1.523,5.962,5.962,0,0,1,1.8-.962,6.38,6.38,0,0,1,2.039-.338,7.593,7.593,0,0,1,1.624.172,6.53,6.53,0,0,1,1.479.51,5.664,5.664,0,0,1,1.249.833,4.462,4.462,0,0,1,.934,1.158.6.6,0,0,1,.072.524,1.031,1.031,0,0,1-.244.423.892.892,0,0,1-.525.223.854.854,0,0,1-.624-.193,4.8,4.8,0,0,0-1.781-1.43,5.375,5.375,0,0,0-2.155-.41,4.855,4.855,0,0,0-1.35.193,4.337,4.337,0,0,0-1.228.567,3.094,3.094,0,0,0-.905.941,2.437,2.437,0,0,0-.352,1.315,2.046,2.046,0,0,0,.417,1.315,3.54,3.54,0,0,0,1.056.883,6.7,6.7,0,0,0,1.4.582q.761.222,1.451.394,1.063.332,2.075.747a7.822,7.822,0,0,1,1.8,1.02,4.791,4.791,0,0,1,1.256,1.436,3.966,3.966,0,0,1,.475,2,5.071,5.071,0,0,1-.5,2.262,5.407,5.407,0,0,1-1.336,1.74,6.061,6.061,0,0,1-1.953,1.119,6.9,6.9,0,0,1-2.334.4,7.072,7.072,0,0,1-1.967-.274,7.524,7.524,0,0,1-1.746-.739,6.144,6.144,0,0,1-1.393-1.105,4.8,4.8,0,0,1-.912-1.372.877.877,0,0,1-.065-.769,1.044,1.044,0,0,1,.438-.467.723.723,0,0,1,.626-.078,1.511,1.511,0,0,1,.611.51,3.6,3.6,0,0,0,.739,1.035,4.72,4.72,0,0,0,1.056.782,5.268,5.268,0,0,0,1.279.5,5.829,5.829,0,0,0,1.422.172,5.183,5.183,0,0,0,1.515-.23,4.286,4.286,0,0,0,1.357-.69,3.579,3.579,0,0,0,.978-1.141,3.23,3.23,0,0,0,.373-1.574,2.4,2.4,0,0,0-.373-1.372,3.389,3.389,0,0,0-.991-.948,6.959,6.959,0,0,0-1.393-.675q-.776-.28-1.566-.537A16.846,16.846,0,0,1,1840.6-117.675Z" transform="translate(-1719.567 126.79)" fill="#2ac4ea"/>
      </g>
      <g id="Group_128" data-name="Group 128" transform="translate(1.148)">
        <path id="Path_243" data-name="Path 243" d="M1601.711-190.062a1.774,1.774,0,0,0-1.239.488,1.694,1.694,0,0,0-.529,1.26v20.722a1.7,1.7,0,0,0,.522,1.245,1.743,1.743,0,0,0,1.247.506,1.739,1.739,0,0,0,1.243-.5,1.7,1.7,0,0,0,.524-1.248v-20.722a1.7,1.7,0,0,0-.532-1.263A1.77,1.77,0,0,0,1601.711-190.062Z" transform="translate(-1599.942 190.241)" fill="#2af499"/>
        <path id="Path_244" data-name="Path 244" d="M1616.984-184.319a8.821,8.821,0,0,1,2.785-1.873,8.548,8.548,0,0,1,3.4-.685,8.8,8.8,0,0,1,3.326.653,9.018,9.018,0,0,1,2.911,1.942,1.65,1.65,0,0,0,1.257.517h0a1.848,1.848,0,0,0,1.269-.532,1.761,1.761,0,0,0,.5-1.228,1.729,1.729,0,0,0-.526-1.24,12.452,12.452,0,0,0-4.074-2.742,12.216,12.216,0,0,0-4.643-.922,12.243,12.243,0,0,0-3.4.462,12.376,12.376,0,0,0-2.966,1.295,12.032,12.032,0,0,0-2.471,1.988,12.607,12.607,0,0,0-1.861,2.514,12.591,12.591,0,0,0-1.18,2.907,12.179,12.179,0,0,0-.416,3.158,12.17,12.17,0,0,0,.436,3.271,12.539,12.539,0,0,0,1.227,2.939,12.394,12.394,0,0,0,1.91,2.5,12.116,12.116,0,0,0,2.482,1.922,12.668,12.668,0,0,0,2.926,1.237,12.006,12.006,0,0,0,3.257.445,12.712,12.712,0,0,0,4.642-.879,11.948,11.948,0,0,0,4.108-2.731,1.739,1.739,0,0,0,.5-1.231,1.67,1.67,0,0,0-.529-1.28,1.737,1.737,0,0,0-1.239-.474h0a1.821,1.821,0,0,0-1.247.52,8.278,8.278,0,0,1-2.913,1.933,9.156,9.156,0,0,1-3.317.586h0a8.468,8.468,0,0,1-3.46-.708,8.763,8.763,0,0,1-2.758-1.913,8.954,8.954,0,0,1-1.823-2.794,8.665,8.665,0,0,1-.659-3.341,8.66,8.66,0,0,1,.683-3.424A8.833,8.833,0,0,1,1616.984-184.319Z" transform="translate(-1605.532 190.428)" fill="#2af499"/>
        <path id="Path_245" data-name="Path 245" d="M1679.054-182.889a12.715,12.715,0,0,0-2.663-3.906,12.8,12.8,0,0,0-3.906-2.633,12.364,12.364,0,0,0-4.793-.947,13.322,13.322,0,0,0-3.285.415,11.79,11.79,0,0,0-2.929,1.243,12.149,12.149,0,0,0-2.486,1.923,13.99,13.99,0,0,0-1.923,2.486,14.2,14.2,0,0,0-1.213,2.929,12.209,12.209,0,0,0-.444,3.284,12.053,12.053,0,0,0,.444,3.285,13.556,13.556,0,0,0,1.213,2.929,12.146,12.146,0,0,0,1.923,2.486,11.334,11.334,0,0,0,2.486,1.953,12.287,12.287,0,0,0,2.929,1.243,12.211,12.211,0,0,0,3.285.444,12.2,12.2,0,0,0,3.284-.444,12.822,12.822,0,0,0,2.929-1.243,12.146,12.146,0,0,0,2.486-1.923,12.225,12.225,0,0,0,1.953-2.515,11.122,11.122,0,0,0,1.213-2.929,12.057,12.057,0,0,0,.474-3.285A12.393,12.393,0,0,0,1679.054-182.889Zm-3.285,8.226a8.218,8.218,0,0,1-1.864,2.781,8.506,8.506,0,0,1-2.781,1.864,8.353,8.353,0,0,1-3.4.71,8.189,8.189,0,0,1-3.432-.71,8.218,8.218,0,0,1-2.782-1.864,8.218,8.218,0,0,1-1.864-2.781,8.371,8.371,0,0,1-.681-3.433,8.139,8.139,0,0,1,.681-3.4,9,9,0,0,1,1.864-2.781,8.675,8.675,0,0,1,2.782-1.864,8.66,8.66,0,0,1,3.432-.68,8.73,8.73,0,0,1,3.4.68,8.666,8.666,0,0,1,2.781,1.864,8.516,8.516,0,0,1,1.864,2.781,8.129,8.129,0,0,1,.681,3.4A8.361,8.361,0,0,1,1675.769-174.663Z" transform="translate(-1628.26 190.401)" fill="#2af499"/>
        <path id="Path_246" data-name="Path 246" d="M1761.947-185.724a6.9,6.9,0,0,0-1.6-2.279,6.937,6.937,0,0,0-2.338-1.509,7.444,7.444,0,0,0-2.9-.562h-4.054v3.491h4.024a4.478,4.478,0,0,1,1.568.3,3.811,3.811,0,0,1,1.243.769,3.5,3.5,0,0,1,.8,1.154,3.352,3.352,0,0,1,.3,1.45,3.144,3.144,0,0,1-.3,1.361,3.225,3.225,0,0,1-.8,1.184,3.475,3.475,0,0,1-1.213.8,3.862,3.862,0,0,1-1.538.3h-4.084v3.551h4.054a7.882,7.882,0,0,0,2.9-.533,6.923,6.923,0,0,0,2.338-1.509,6.779,6.779,0,0,0,1.6-2.249,7.116,7.116,0,0,0,.592-2.87A7.08,7.08,0,0,0,1761.947-185.724Z" transform="translate(-1677.09 190.247)" fill="#2af499"/>
        <path id="Path_247" data-name="Path 247" d="M1788.471-176.077a9.406,9.406,0,0,0,1.48-.651,7.846,7.846,0,0,0,1.864-1.539,7.767,7.767,0,0,0,1.213-2.1,7.016,7.016,0,0,0,.444-2.515,7.056,7.056,0,0,0-.562-2.841,7.224,7.224,0,0,0-1.6-2.279,6.774,6.774,0,0,0-2.368-1.509,7.194,7.194,0,0,0-2.87-.562h-6.037a1.794,1.794,0,0,0-1.243.5,1.77,1.77,0,0,0-.533,1.242v20.743a1.772,1.772,0,0,0,.533,1.243,1.743,1.743,0,0,0,1.243.5,1.744,1.744,0,0,0,1.243-.5,1.655,1.655,0,0,0,.532-1.243v-8.137h2.782l5.533,9a1.692,1.692,0,0,0,1.006.8,1.64,1.64,0,0,0,.5.089,1.761,1.761,0,0,0,.8-.177,1.679,1.679,0,0,0,.917-1.036,1.705,1.705,0,0,0-.148-1.45Zm-2.4-3.2h-4.261v-7.309h4.231a4.473,4.473,0,0,1,1.568.3,3.807,3.807,0,0,1,1.243.769,4.005,4.005,0,0,1,.8,1.154,3.349,3.349,0,0,1,.3,1.45,3.141,3.141,0,0,1-.3,1.361,3.629,3.629,0,0,1-.8,1.184,3.908,3.908,0,0,1-1.243.8A3.67,3.67,0,0,1,1786.074-179.273Z" transform="translate(-1690.979 190.247)" fill="#2af499"/>
        <path id="Path_248" data-name="Path 248" d="M1834.942-182.889a13.17,13.17,0,0,0-2.633-3.906,13.18,13.18,0,0,0-3.906-2.633,12.366,12.366,0,0,0-4.794-.947,13.143,13.143,0,0,0-3.285.415,12.5,12.5,0,0,0-2.959,1.243,11.962,11.962,0,0,0-2.456,1.923,14.021,14.021,0,0,0-1.923,2.486,11.585,11.585,0,0,0-1.213,2.929,12.233,12.233,0,0,0-.444,3.284,12.076,12.076,0,0,0,.444,3.285,11.155,11.155,0,0,0,1.213,2.929,12.169,12.169,0,0,0,1.923,2.486,11.332,11.332,0,0,0,2.486,1.953,12.279,12.279,0,0,0,2.929,1.243,12.046,12.046,0,0,0,3.285.444,12.207,12.207,0,0,0,3.284-.444,12.822,12.822,0,0,0,2.929-1.243,13.007,13.007,0,0,0,2.486-1.923,12.1,12.1,0,0,0,1.923-2.515,12.3,12.3,0,0,0,1.243-2.929,12.067,12.067,0,0,0,.444-3.285A11.872,11.872,0,0,0,1834.942-182.889Zm-3.255,8.226a8.673,8.673,0,0,1-1.864,2.781,8.839,8.839,0,0,1-2.781,1.864,8.39,8.39,0,0,1-3.432.71,8.39,8.39,0,0,1-3.433-.71,8.386,8.386,0,0,1-2.752-1.864,8.212,8.212,0,0,1-1.864-2.781,8.382,8.382,0,0,1-.711-3.433,8.625,8.625,0,0,1,.681-3.4,9.088,9.088,0,0,1,1.894-2.781,8.537,8.537,0,0,1,2.752-1.864,8.876,8.876,0,0,1,3.433-.68,8.877,8.877,0,0,1,3.432.68,9.013,9.013,0,0,1,2.781,1.864,9.007,9.007,0,0,1,1.864,2.781,8.627,8.627,0,0,1,.681,3.4A8.88,8.88,0,0,1,1831.687-174.663Z" transform="translate(-1707.86 190.401)" fill="#2af499"/>
        <path id="Path_249" data-name="Path 249" d="M1727.565-188.322v-1.74h-1.75a1.755,1.755,0,0,0-1.262.516,1.732,1.732,0,0,0-.518,1.249v15.278l-11.274-16.046a1.5,1.5,0,0,0-.409-.514l-.2-.2.013-.093h-.286a2.2,2.2,0,0,0-.7-.159,1.741,1.741,0,0,0-1.244.5,1.7,1.7,0,0,0-.525,1.248v20.684a1.7,1.7,0,0,0,.521,1.245,1.744,1.744,0,0,0,1.247.506,1.737,1.737,0,0,0,1.242-.5,1.7,1.7,0,0,0,.525-1.248v-15.269l11.369,16.246.2.246a1.783,1.783,0,0,0,1.3.529l.333-.029a1.734,1.734,0,0,0,1.023-.589,1.71,1.71,0,0,0,.411-1.133v-20.7C1727.57-188.305,1727.565-188.313,1727.565-188.322Z" transform="translate(-1655.826 190.241)" fill="#2af499"/>
      </g>
    </g>
  </g>
</svg>
